<?xml version="1.0" encoding="UTF-8"?>
<svg id="Capa_1" data-name="Capa 1" xmlns="http://www.w3.org/2000/svg" xmlns:xlink="http://www.w3.org/1999/xlink" viewBox="0 0 326.77 263.85">
  <defs>
    <style>
      .cls-1 {
        fill: #25ccc7;
      }

      .cls-1, .cls-2, .cls-3, .cls-4, .cls-5, .cls-6, .cls-7, .cls-8, .cls-9, .cls-10 {
        stroke-width: 0px;
      }

      .cls-2 {
        fill: url(#Degradado_sin_nombre_19);
      }

      .cls-3 {
        fill: #02846b;
      }

      .cls-4 {
        fill: url(#linear-gradient);
      }

      .cls-5 {
        fill: #003f3f;
      }

      .cls-6 {
        fill: #00635e;
      }

      .cls-11 {
        filter: url(#drop-shadow-1);
      }

      .cls-7 {
        fill: #fefefd;
      }

      .cls-8 {
        fill: #ff8532;
      }

      .cls-9 {
        fill: #ed4a0a;
      }

      .cls-10 {
        fill: url(#linear-gradient-2);
      }
    </style>
    <filter id="drop-shadow-1" filterUnits="userSpaceOnUse">
      <feOffset dx="6" dy="6"/>
      <feGaussianBlur result="blur" stdDeviation="4"/>
      <feFlood flood-color="#a5a8ab" flood-opacity=".3"/>
      <feComposite in2="blur" operator="in"/>
      <feComposite in="SourceGraphic"/>
    </filter>
    <linearGradient id="linear-gradient" x1="603.45" y1="205.69" x2="621.57" y2="205.69" gradientTransform="translate(-584.67 155.9) rotate(-17.27)" gradientUnits="userSpaceOnUse">
      <stop offset="0" stop-color="#fffc6f"/>
      <stop offset=".02" stop-color="#f0f972"/>
      <stop offset=".11" stop-color="#c3f37c"/>
      <stop offset=".2" stop-color="#9cee85"/>
      <stop offset=".29" stop-color="#7be98d"/>
      <stop offset=".4" stop-color="#60e594"/>
      <stop offset=".51" stop-color="#4be298"/>
      <stop offset=".63" stop-color="#3ce09c"/>
      <stop offset=".77" stop-color="#33df9e"/>
      <stop offset="1" stop-color="#31df9f"/>
    </linearGradient>
    <linearGradient id="Degradado_sin_nombre_19" data-name="Degradado sin nombre 19" x1="61.29" y1="131.93" x2="326.77" y2="131.93" gradientUnits="userSpaceOnUse">
      <stop offset="0" stop-color="#e2fabe"/>
      <stop offset="1" stop-color="#fff"/>
    </linearGradient>
    <linearGradient id="linear-gradient-2" x1="486.47" y1="-2764.95" x2="494.46" y2="-2764.95" gradientTransform="translate(-2135.03 1949.79) rotate(39.56)" gradientUnits="userSpaceOnUse">
      <stop offset="0" stop-color="#2ed474"/>
      <stop offset=".23" stop-color="#2ad17a"/>
      <stop offset=".56" stop-color="#20ca8c"/>
      <stop offset=".94" stop-color="#10bfaa"/>
      <stop offset="1" stop-color="#0dbdb0"/>
    </linearGradient>
  </defs>
  <g>
    <g class="cls-11">
      <path class="cls-4" d="M69.95,167.8c1.52,4.79-1.13,9.85-5.91,11.31s-9.9-1.24-11.41-6.03,1.13-9.85,5.91-11.31c4.79-1.46,9.9,1.24,11.41,6.03Z"/>
      <path class="cls-2" d="M279.44,16.02c-28.34-25.26-63.06-16.61-94.08-1.65-12.8,6.17-25.25,14.13-38.95,18.31-20.38,6.22-44.07,2.29-62.49,14.48-16.98,11.24-25.77,33.45-21.6,52.99,3.24,15.19,13.14,27.95,17.19,42.87,4.5,16.6.77,33.73,2.8,50.57,3.26,27.06,22.07,45.58,45.92,57.87,119.82,61.72,279.28-121.29,151.22-235.44Z"/>
    </g>
    <path class="cls-10" d="M1.18,127.49c1.57-1.54,4.12-1.55,5.7,0,1.58,1.54,1.58,4.04,0,5.59-1.57,1.54-4.12,1.55-5.7,0-1.58-1.54-1.58-4.04,0-5.59Z"/>
    <g>
      <path class="cls-9" d="M181.4,246.12c-.17,2.61-2.47,4.58-5.13,4.42-2.66-.17-4.68-2.42-4.51-5.02s2.47-4.58,5.13-4.42c2.66.17,4.68,2.42,4.51,5.02Z"/>
      <path class="cls-9" d="M188.01,254.15c-.08,1.16-1.1,2.04-2.28,1.96-1.18-.07-2.08-1.07-2-2.23.08-1.16,1.1-2.04,2.28-1.96s2.08,1.07,2,2.23Z"/>
    </g>
  </g>
  <g>
    <path class="cls-5" d="M209.77,64.09v122.78c0,5-.07,10,.02,14.99.07,3.7-1.41,5.55-5.29,5.55-28.82-.05-57.64-.05-86.46,0-4.34,0-5.24-2.38-5.23-6.1.07-19.82.03-39.64.03-59.46,0-29.65,0-59.3,0-88.95,0-7.03.44-7.48,7.27-7.49,12.83,0,25.66-.09,38.48.06,3.27.04,4.42-.99,4.27-4.28-.23-4.99.05-9.99-.09-14.99-.11-3.93,1.36-5.86,5.51-5.82,11.99.11,23.99.11,35.98,0,4.17-.04,5.56,1.94,5.51,5.84-.11,9.49.05,18.99-.09,28.48-.04,2.98.68,3.66,3.67,2.83,14.25-3.92,28.58-7.52,42.82-11.48,4-1.11,5.74-.08,6.78,3.92,10.52,40.66,21.18,81.28,31.8,121.92,1.51,5.78,2.84,11.62,4.57,17.33,1.05,3.45-.31,5.12-3.33,5.93-14.6,3.9-29.23,7.68-43.8,11.66-3.62.99-4.74-.7-5.53-3.73-6.25-24.1-12.58-48.19-18.87-72.28-5.82-22.27-11.62-44.54-17.42-66.81-.21.03-.42.06-.63.08ZM162.71,175.49c0-2.68,0-5.36,0-8.03-.33-.3-.66-.86-.99-.86-13.33-.06-26.66-.13-39.99-.07-4.79.02-2.3,3.83-2.76,5.98-.5,2.33-.12,4.02,3.2,3.97,12.83-.19,25.66-.08,38.49-.08.8,0,1.69.14,2.05-.9ZM119.99,51.58c-2.05.8-.81,2.54-1.07,3.84-.96,4.78,1.03,6.12,5.82,5.96,11.08-.37,22.19-.08,33.28-.17,1.52-.01,3.31.85,4.61-.77.06-1.15,0-2.33.21-3.45.87-4.66-1.15-5.7-5.59-5.59-12.41.33-24.84.15-37.25.18ZM168.92,115.35c0,16.81.06,33.61-.05,50.42-.02,3.1.75,4.55,4.16,4.49,8.82-.17,17.64-.18,26.46,0,3.42.07,4.18-1.36,4.17-4.46-.08-33.61-.1-67.22.02-100.83.01-3.72-1.53-4.44-4.78-4.38-8.48.16-16.98.27-25.46-.04-3.97-.15-4.64,1.34-4.6,4.89.17,16.64.08,33.28.08,49.92ZM118.91,113.91c0,13.99.09,27.98-.06,41.96-.04,3.34.76,4.71,4.42,4.65,11.65-.21,23.32-.24,34.97,0,3.91.08,4.69-1.34,4.67-4.92-.13-27.81-.16-55.62.02-83.43.03-4.18-1.48-4.96-5.2-4.9-11.32.2-22.65.27-33.97-.03-4.21-.11-4.96,1.48-4.91,5.2.18,13.82.07,27.64.07,41.46ZM244.05,162.48c.87-.11,1.21-.12,1.53-.2,11.54-3.05,23.07-6.1,34.6-9.17,2.47-.66,2.86-2.16,2.23-4.55-5.51-20.65-10.97-41.32-16.32-62.02-.6-2.32-1.15-3.58-3.92-2.82-11.5,3.17-23.04,6.21-34.58,9.26-2.11.56-2.91,1.32-2.24,3.83,5.57,20.98,10.97,42.01,16.36,63.04.42,1.65.89,2.86,2.34,2.63ZM141.13,182.39c-2.83,0-5.65,0-8.48,0-14.4,0-14.31,0-13.8,14.63.11,3.24,1.25,4.4,4.44,4.35,8.48-.13,16.96-.05,25.44-.05,14.92,0,14.85,0,14.16-15.26-.13-2.82-1.04-3.78-3.81-3.72-5.98.14-11.97.04-17.96.04ZM222.09,75.63c.16-.04,1.14-.21,2.1-.47,9.58-2.58,19.15-5.18,28.73-7.74q8.14-2.18,5.79-10.13c-.23-.79-.47-1.6-.85-2.32-.97-1.85-1.93-2.82-4.56-2.02-8.96,2.73-18.05,5.08-27.12,7.42-12.81,3.32-9.52,1.82-7.22,12.97.1.48.28.96.48,1.41.34.8.8,1.47,2.64.88ZM253.6,199.97c.32-.1.63-.22.95-.31,12.03-3.14,24.05-6.28,36.08-9.43,1.81-.47,2.34-1.64,1.82-3.41-.7-2.38-1.41-4.77-2-7.19-.57-2.32-1.41-3.13-4.14-2.34-9.23,2.68-18.59,4.91-27.87,7.42-10.15,2.73-10.54,3.62-6.66,13.49.12.31.11.66.24.96.3.69.83.97,1.58.79ZM287.66,168.23c-.38-1.53-1.03-3.27-1.24-5.07-.51-4.43-2.46-5.1-6.65-3.81-9.15,2.82-18.49,4.98-27.74,7.48-8.56,2.31-8.45,2.32-5.86,10.96.85,2.84,2.06,3.51,4.94,2.7,11.35-3.16,22.76-6.12,34.17-9.07,1.69-.44,2.84-.95,2.37-3.19ZM185.82,201.33c3.32,0,6.64,0,9.97,0,8.19,0,8,0,8.01-8.23,0-3.88-1.62-4.8-5.11-4.71-6.97.19-13.95.05-20.93.05-9.52,0-9.43,0-8.94,9.48.13,2.6,1.01,3.51,3.55,3.44,4.48-.13,8.97-.04,13.45-.03ZM186.33,26.48c-4.65,0-9.3.09-13.95-.04-2.53-.07-3.74.78-3.52,3.43.12,1.48.17,3,0,4.48-.48,4.04,1.41,5.18,5.21,5.06,6.97-.22,13.95-.07,20.92-.06,9.34,0,9.25,0,8.79-9.42-.12-2.54-.89-3.57-3.49-3.49-4.65.14-9.3.04-13.95.04ZM186.01,54.47c4.81,0,9.63-.13,14.43.05,3.29.12,3.44-1.85,3.25-4.17-.17-2.09,1.01-4.97-2.94-4.95-9.62.05-19.25.07-28.87,0-3.92-.03-2.86,2.78-3,4.9-.15,2.27-.14,4.34,3.19,4.22,4.64-.16,9.29-.04,13.94-.04ZM224.96,87.22c4.61-1.26,9.24-2.54,13.88-3.78,7.2-1.93,14.38-3.9,21.61-5.72,2.43-.61,2.61-2.12,2.34-4.12-.23-1.7-1-2.25-2.71-1.79-12.16,3.26-24.32,6.48-36.5,9.68-1.78.47-1.97,1.66-1.53,3.04.43,1.36.76,3.05,2.91,2.7ZM186,182.4c4.81,0,9.62-.07,14.43.03,2.27.04,3.36-.7,3.3-3.13-.05-2.1-.86-2.97-2.98-2.96-9.62.05-19.24.05-28.85,0-2.05,0-3,.71-3.05,2.88-.05,2.36.89,3.25,3.22,3.21,4.64-.1,9.29-.03,13.93-.03Z"/>
    <path class="cls-1" d="M168.91,115.35c0-16.64.1-33.28-.08-49.92-.04-3.55.63-5.04,4.6-4.89,8.48.31,16.97.2,25.46.04,3.25-.06,4.8.66,4.78,4.38-.12,33.61-.1,67.22-.02,100.83,0,3.1-.75,4.53-4.17,4.46-8.82-.18-17.64-.17-26.46,0-3.41.07-4.18-1.38-4.16-4.49.11-16.8.05-33.61.05-50.42Z"/>
    <path class="cls-3" d="M118.91,113.91c0-13.82.11-27.64-.07-41.46-.05-3.72.7-5.31,4.91-5.2,11.32.3,22.65.23,33.97.03,3.72-.06,5.23.72,5.2,4.9-.19,27.81-.15,55.62-.02,83.43.02,3.58-.76,5-4.67,4.92-11.65-.24-23.32-.22-34.97,0-3.66.07-4.45-1.3-4.42-4.65.15-13.99.06-27.98.06-41.96ZM140.87,76.44c-3.66,0-7.32.06-10.98-.02-2.98-.06-4.19,1.33-4.16,4.24.06,7.49.06,14.98,0,22.46-.03,2.84,1,4.38,4.04,4.35,7.49-.06,14.98,0,22.47-.03,3.1,0,4.53-1.71,4.54-4.71.02-7.16,0-14.31,0-21.47,0-3.3-1.63-4.88-4.93-4.85-3.66.04-7.32,0-10.98,0Z"/>
    <path class="cls-3" d="M244.05,162.48c-1.45.23-1.92-.98-2.34-2.63-5.39-21.03-10.79-42.06-16.36-63.04-.67-2.51.13-3.27,2.24-3.83,11.54-3.05,23.07-6.09,34.58-9.26,2.77-.76,3.32.5,3.92,2.82,5.35,20.7,10.81,41.36,16.32,62.02.64,2.39.25,3.89-2.23,4.55-11.53,3.06-23.07,6.12-34.6,9.17-.32.08-.66.09-1.53.2Z"/>
    <path class="cls-3" d="M141.13,182.39c5.99,0,11.98.1,17.96-.04,2.77-.07,3.69.9,3.81,3.72.68,15.27.76,15.26-14.16,15.26-8.48,0-16.96-.08-25.44.05-3.2.05-4.33-1.11-4.44-4.35-.52-14.63-.6-14.63,13.8-14.63,2.83,0,5.65,0,8.48,0Z"/>
    <path class="cls-8" d="M222.09,75.63c-1.84.58-2.3-.09-2.64-.88-.2-.46-.38-.93-.48-1.41-2.3-11.15-5.6-9.65,7.22-12.97,9.07-2.35,18.16-4.7,27.12-7.42,2.62-.8,3.59.18,4.56,2.02.38.72.61,1.53.85,2.32q2.35,7.96-5.79,10.13c-9.58,2.57-19.15,5.17-28.73,7.74-.96.26-1.94.43-2.1.47Z"/>
    <path class="cls-3" d="M253.6,199.96c-.75.19-1.29-.09-1.58-.78-.13-.3-.12-.66-.24-.96-3.88-9.88-3.48-10.76,6.66-13.49,9.28-2.5,18.64-4.73,27.87-7.42,2.72-.79,3.57.02,4.14,2.34.59,2.41,1.3,4.8,2,7.19.52,1.77,0,2.93-1.82,3.41-12.03,3.15-24.05,6.28-36.08,9.43-.32.08-.63.2-.95.3Z"/>
    <path class="cls-8" d="M287.66,168.23c.47,2.24-.68,2.76-2.37,3.19-11.41,2.95-22.82,5.91-34.17,9.07-2.88.8-4.09.14-4.94-2.7-2.6-8.65-2.71-8.65,5.86-10.96,9.25-2.49,18.59-4.66,27.74-7.48,4.19-1.29,6.14-.62,6.65,3.81.21,1.8.85,3.55,1.24,5.07Z"/>
    <path class="cls-3" d="M185.82,201.33c-4.49,0-8.97-.1-13.45.03-2.54.07-3.42-.83-3.55-3.44-.48-9.48-.58-9.48,8.94-9.48,6.98,0,13.96.13,20.93-.05,3.5-.09,5.12.82,5.11,4.71,0,8.23.18,8.23-8.01,8.23-3.32,0-6.64,0-9.97,0Z"/>
    <path class="cls-3" d="M186.33,26.48c4.65,0,9.3.1,13.95-.04,2.61-.08,3.37.95,3.49,3.49.46,9.43.55,9.42-8.79,9.42-6.98,0-13.96-.16-20.92.06-3.8.12-5.69-1.02-5.21-5.06.17-1.47.13-2.99,0-4.48-.22-2.64,1-3.5,3.52-3.43,4.65.12,9.3.04,13.95.04Z"/>
    <path class="cls-7" d="M119.99,51.58c12.42-.02,24.84.15,37.25-.18,4.44-.12,6.46.93,5.59,5.59-.21,1.12-.15,2.3-.21,3.45-11.59,0-23.17-.02-34.76-.03q-8.6,0-7.87-8.83Z"/>
    <path class="cls-7" d="M162.7,167.45c0,2.68,0,5.36,0,8.03-12.98.06-25.97,0-38.95.25-3.34.06-4.11-1.01-4.12-4.19,0-3.18.75-4.25,4.1-4.2,12.99.21,25.98.1,38.96.12Z"/>
    <path class="cls-3" d="M186.01,54.47c-4.65,0-9.3-.12-13.94.04-3.33.12-3.34-1.95-3.19-4.22.14-2.12-.93-4.93,3-4.9,9.62.08,19.25.06,28.87,0,3.94-.02,2.77,2.86,2.94,4.95.19,2.32.04,4.29-3.25,4.17-4.81-.18-9.62-.05-14.43-.05Z"/>
    <path class="cls-3" d="M224.96,87.22c-2.15.35-2.48-1.33-2.91-2.7-.44-1.38-.25-2.57,1.53-3.04,12.17-3.19,24.34-6.42,36.5-9.68,1.71-.46,2.49.09,2.71,1.79.27,2,.09,3.51-2.34,4.12-7.23,1.82-14.41,3.79-21.61,5.72-4.64,1.24-9.27,2.52-13.88,3.78Z"/>
    <path class="cls-3" d="M186,182.4c-4.64,0-9.29-.07-13.93.03-2.33.05-3.28-.84-3.22-3.21.05-2.16,1-2.89,3.05-2.88,9.62.05,19.24.05,28.85,0,2.12-.01,2.93.86,2.98,2.96.06,2.42-1.03,3.17-3.3,3.13-4.81-.09-9.62-.03-14.43-.03Z"/>
    <path class="cls-8" d="M162.7,167.45c-12.99-.01-25.98.09-38.96-.12-3.35-.05-4.11,1.02-4.1,4.2,0,3.18.78,4.26,4.12,4.19,12.98-.24,25.97-.19,38.95-.25-.36,1.04-1.26.89-2.05.9-12.83,0-25.66-.1-38.49.08-3.32.05-3.7-1.63-3.2-3.97.46-2.15-2.03-5.96,2.76-5.98,13.33-.06,26.66,0,39.99.07.33,0,.66.56.99.86Z"/>
    <path class="cls-8" d="M119.99,51.58q-.72,8.83,7.87,8.83c11.59,0,23.17.02,34.76.03-1.3,1.62-3.08.76-4.61.77-11.09.09-22.2-.21-33.28.17-4.79.16-6.78-1.18-5.82-5.96.26-1.29-.99-3.04,1.07-3.84Z"/>
    <path class="cls-5" d="M140.87,76.43c3.66,0,7.32.03,10.98,0,3.3-.03,4.93,1.55,4.93,4.85,0,7.16,0,14.31,0,21.47,0,3-1.44,4.7-4.54,4.71-7.49.02-14.98-.03-22.47.03-3.05.02-4.07-1.51-4.04-4.35.07-7.49.07-14.98,0-22.46-.02-2.91,1.18-4.31,4.16-4.24,3.66.08,7.32.02,10.98.02ZM150.8,91.97q0-9.52-9.31-9.52c-.17,0-.33,0-.5,0q-9.18,0-9.18,9.21,0,9.77,9.61,9.77,9.37,0,9.38-9.45Z"/>
    <path class="cls-6" d="M150.8,91.97q0,9.45-9.38,9.45-9.61,0-9.61-9.77,0-9.21,9.18-9.21c.17,0,.33,0,.5,0q9.32,0,9.31,9.52Z"/>
  </g>
</svg>