<?xml version="1.0" encoding="UTF-8"?>
<svg id="Capa_1" data-name="Capa 1" xmlns="http://www.w3.org/2000/svg" viewBox="0 0 103.17 96.32">
  <defs>
    <style>
      .cls-1 {
        fill: #ff8434;
      }

      .cls-1, .cls-2, .cls-3, .cls-4 {
        stroke-width: 0px;
      }

      .cls-2 {
        fill: #18786c;
      }

      .cls-3 {
        fill: #58e1d7;
      }

      .cls-4 {
        fill: #fff;
      }
    </style>
  </defs>
  <rect class="cls-3" width="103.17" height="96.32" rx="10.32" ry="10.32"/>
  <path class="cls-1" d="M37.51,55.69c.89-.76,1.44-1.81,1.53-2.98.1-1.16-.26-2.3-1.01-3.19-.75-.9-1.8-1.44-2.96-1.54-1.16-.1-2.29.26-3.18,1.02-.95.8-1.51,1.97-1.55,3.21,0,.04,0,.09-.01.13l2.67,4.05s.02,0,.04.01c1.51.62,3.22.35,4.46-.71Z"/>
  <path class="cls-1" d="M37.5,39.82c-1.83,1.56-4.59,1.32-6.14-.52-.75-.9-1.11-2.03-1.01-3.2.1-1.16.64-2.22,1.53-2.97,0,0,0,0,0,0,.82-.69,1.81-1.03,2.81-1.03,1.24,0,2.47.53,3.33,1.55.75.89,1.11,2.03,1.01,3.19-.1,1.16-.64,2.22-1.53,2.98Z"/>
  <path class="cls-4" d="M86.94,61.61c-.13-.24-.17-.51-.11-.78.24-1,.36-2.04.36-3.07,0-7.85-6.92-14.24-15.43-14.24s-15.43,6.39-15.43,14.24c0,2.69.81,5.3,2.35,7.56.02.03.04.07.06.1.08.16.16.32.24.47.01.02.02.04.03.07,2.97,5.84,3.73,11.34,2.28,16.44-.01.05-.03.11-.04.16-.36,1.21-.84,2.4-1.45,3.57h18.37l.21-5.12c.02-.53.43-.97.95-1.02l5.85-.63c1.15-.13,2-1.06,2.02-2.22l.04-1.87-1.36-1.16c-.27-.23-.41-.59-.37-.94.04-.36.26-.67.58-.83l1.47-.75-.23-2.15c-.05-.44.18-.87.58-1.07l1.95-1c.07-.04.11-.07.13-.16.03-.1.02-.14-.02-.21l-3.02-5.38Z"/>
  <path class="cls-2" d="M43.18,34.7c0-.59.48-1.07,1.07-1.07h23.51c.59,0,1.07.48,1.07,1.07s-.48,1.07-1.07,1.07h-23.51c-.59,0-1.07-.48-1.07-1.07h0ZM44.25,39.33h13.55c.59,0,1.07-.48,1.07-1.07s-.48-1.07-1.07-1.07h-13.55c-.59,0-1.07.48-1.07,1.07s.48,1.07,1.07,1.07ZM39.66,32.27c1.12,1.33,1.65,3.02,1.51,4.76-.15,1.74-.96,3.31-2.29,4.43-1.22,1.03-2.7,1.54-4.18,1.54-1.85,0-3.68-.79-4.97-2.31-1.12-1.34-1.66-3.03-1.51-4.77.15-1.73.96-3.31,2.28-4.43,2.73-2.32,6.84-1.97,9.15.78h0ZM38.03,33.65c-.86-1.02-2.09-1.55-3.33-1.55-.99,0-1.99.34-2.81,1.03,0,0,0,0,0,0-.89.75-1.43,1.81-1.53,2.97-.1,1.17.26,2.3,1.01,3.2,1.55,1.84,4.3,2.08,6.14.52.89-.75,1.44-1.81,1.53-2.98.1-1.16-.26-2.3-1.01-3.19ZM37.23,34.24c-.45-.38-1.13-.32-1.5.14l-1.53,1.84-.41-.49c-.38-.46-1.05-.52-1.5-.14-.45.38-.52,1.06-.14,1.51l1.23,1.48c.2.25.5.39.82.39h0c.32,0,.62-.14.82-.39l2.35-2.83c.38-.46.32-1.13-.14-1.51h0ZM35.02,54.45l2.35-2.84c.38-.46.32-1.13-.14-1.51-.45-.38-1.13-.32-1.5.14l-1.53,1.84-.41-.49c-.38-.46-1.05-.52-1.5-.14s-.52,1.05-.14,1.51l1.23,1.49c.2.25.5.39.82.39h0c.32,0,.62-.14.82-.39h0ZM92.03,67.81c-.2.65-.62,1.16-1.22,1.46l-1.28.66.23,2.15c.05.44-.18.87-.58,1.07l-.69.35.53.45c.24.21.38.52.38.84l-.05,2.38c-.04,2.22-1.73,4.08-3.93,4.32l-4.93.53-.21,5.23c-.02.58-.49,1.03-1.07,1.03h-21.25c-.39,0-.75-.21-.94-.56-.19-.34-.17-.76.04-1.09.7-1.1,1.27-2.22,1.71-3.36H23.93c-.59,0-1.07-.48-1.07-1.07v-23.03l-8.75-13.23s0,0,0,0c-.57-.86-.18-2.06.91-2.78l4.5-3.01c1.07-.71,2.35-.61,2.91.24l.43.65v-21.37c0-.59.48-1.07,1.07-1.07h9.62v-3.48c0-.59.48-1.07,1.07-1.07h7.96c.56-2.68,2.91-4.66,5.75-4.66s5.18,1.98,5.74,4.66h7.96c.59,0,1.07.48,1.07,1.07v3.48h9.83c.59,0,1.07.48,1.07,1.07v21.85c8.64,1.02,15.35,7.92,15.35,16.25,0,1.06-.11,2.12-.33,3.15l2.82,5.02c.33.58.4,1.23.21,1.88h0ZM35.68,24.21h25.27v-8.04h-7.84c-.58,0-1.05-.46-1.07-1.04-.07-2.03-1.71-3.63-3.73-3.63s-3.67,1.59-3.73,3.63c-.02.58-.49,1.04-1.07,1.04h-7.83v8.04h0ZM33.04,56.39c1.51.62,3.22.35,4.46-.71.89-.75,1.44-1.81,1.53-2.98.1-1.16-.26-2.3-1.01-3.19-.75-.9-1.8-1.44-2.96-1.54-1.16-.1-2.29.26-3.18,1.02-.95.8-1.51,1.97-1.55,3.21,0,.04,0,.09-.01.13l2.67,4.05s.02,0,.04.01ZM23.06,45.21s-.03-.04-.04-.06l-.12-.19-4.76,3.17,6.65,10.06s.04.06.06.09l5.41,8.19s.03.04.04.06h0s4.56,1.72,4.56,1.72l.2-4.89-12.01-18.16ZM37.15,64.59l-.21,5.24c-.01.34-.19.66-.48.85-.18.12-.38.18-.59.18-.13,0-.25-.02-.37-.07l-5.11-1.92c.12.79.45,1.53.98,2.16,1.55,1.84,4.3,2.08,6.14.52.89-.75,1.44-1.81,1.53-2.98.1-1.16-.26-2.3-1.01-3.19-.26-.31-.56-.57-.88-.79ZM16.08,45.02l.87,1.32,4.76-3.17-.87-1.32s-.09.04-.13.07l-4.5,3.01s-.09.07-.12.1h0ZM59.44,81.12c.8-3.32.56-6.82-.74-10.54-.19.29-.52.48-.89.48h-13.55c-.59,0-1.07-.48-1.07-1.07s.48-1.07,1.07-1.07h13.55c.09,0,.18.01.26.03-.2-.48-.42-.96-.66-1.45h-13.15c-.59,0-1.07-.48-1.07-1.07s.48-1.07,1.07-1.07h11.94c-1.31-2.33-1.99-4.93-1.99-7.59,0-.87.07-1.73.22-2.56h-10.16c-.59,0-1.07-.48-1.07-1.07s.48-1.07,1.07-1.07h10.69c.16-.48.33-.96.54-1.42h-11.22c-.59,0-1.07-.48-1.07-1.07s.48-1.07,1.07-1.07h12.36c3.05-4.85,8.7-8.11,15.16-8.11.03,0,.05,0,.08,0v-20.65h-8.76v4.56c0,.59-.48,1.07-1.07,1.07h-27.41c-.59,0-1.07-.48-1.07-1.07v-4.56h-8.55v23.53l3.7,5.6c.39-.96,1.01-1.82,1.82-2.5,1.33-1.12,3.01-1.66,4.74-1.51,1.73.15,3.3.96,4.42,2.3,1.12,1.33,1.65,3.02,1.51,4.76-.15,1.74-.96,3.31-2.29,4.44-1.19,1.01-2.68,1.54-4.18,1.54-.02,0-.04,0-.05,0l2.07,3.14c1.14.38,2.15,1.06,2.94,1.99,1.12,1.33,1.66,3.02,1.51,4.76-.15,1.74-.96,3.31-2.29,4.44-1.18,1-2.65,1.54-4.18,1.54-.19,0-.37,0-.56-.02-1.73-.15-3.3-.96-4.42-2.29-1.19-1.42-1.72-3.25-1.47-5.07l-3.27-4.95v18.72h34.45ZM89.97,66.99l-3.02-5.38c-.13-.24-.17-.51-.11-.78.24-1,.36-2.04.36-3.07,0-7.85-6.92-14.24-15.43-14.24s-15.43,6.39-15.43,14.24c0,2.69.81,5.3,2.35,7.56.02.03.04.07.06.1.08.16.16.32.24.47.01.02.02.04.03.07,2.97,5.84,3.73,11.34,2.28,16.44-.01.05-.03.11-.04.16-.36,1.21-.84,2.4-1.45,3.57h18.37l.21-5.12c.02-.53.43-.97.95-1.02l5.85-.63c1.15-.13,2-1.06,2.02-2.22l.04-1.87-1.36-1.16c-.27-.23-.41-.59-.37-.94s.26-.67.58-.83l1.47-.75-.23-2.15c-.05-.44.18-.87.58-1.07l1.95-1c.07-.04.11-.07.13-.16.03-.1.02-.14-.02-.21h0ZM85.7,56.12c0,3.03-2.45,5.49-5.46,5.49-.1,0-.21,0-.31,0-.26,2.37-2.27,4.23-4.69,4.23h-1.31c-2.43.04-2.45.19-2.48,1.11v3.98c0,.59-.48,1.07-1.07,1.07s-1.07-.48-1.07-1.07v-3.39c-1.76-.59-3.15-1.54-4.12-2.83-.36.07-.72.11-1.05.11-1.91,0-4.85-2.09-4.85-4.87,0-1.52.72-2.95,1.89-3.86-.17-.54-.26-1.11-.26-1.68,0-3.03,2.45-5.49,5.46-5.49.36,0,.71.03,1.05.1,1.1-2.06,3.32-3.39,5.81-3.39,3.13,0,5.83,2.15,6.41,5.06.19-.02.39-.03.58-.03,3.01,0,5.46,2.46,5.46,5.48h0ZM83.56,56.12c0-1.84-1.49-3.34-3.32-3.34-.4,0-.79.07-1.17.21-.34.13-.72.07-1.01-.15-.29-.22-.45-.57-.42-.94,0-.03,0-.05,0-.08,0-.19-.01-.38-.04-.56-.3-2-2.17-3.5-4.34-3.5-1.94,0-3.62,1.16-4.19,2.88-.09.28-.3.51-.57.64-.27.12-.58.13-.85.02-.4-.16-.82-.25-1.25-.25-1.83,0-3.32,1.5-3.32,3.34,0,.56.13,1.1.4,1.59.14.26.17.56.08.84s-.29.51-.56.64c-.94.45-1.55,1.42-1.55,2.47,0,1.47,1.82,2.73,2.72,2.73,1.27,0,3.22-.92,3.22-2.15,0-.13-.02-.25-.05-.37-1.16-.61-1.95-1.83-1.95-3.24,0-.59.48-1.07,1.07-1.07s1.07.48,1.07,1.07.37,1.15.9,1.38c.07.02.13.04.19.07.13.04.26.06.4.06.55,0,1.05-.3,1.32-.78.28-.52.93-.71,1.45-.43.52.28.71.93.43,1.46-.55,1.03-1.56,1.71-2.69,1.87,0,1.52-.96,2.66-2.18,3.38.6.62,1.36,1.11,2.31,1.47.73-1.61,2.59-1.65,4.27-1.68,0,0,.01,0,.02,0h1.32c1.43,0,2.59-1.17,2.59-2.6,0-.18-.02-.35-.05-.54-.16-.57-.58-1.52-1.67-1.72-.58-.11-.96-.67-.86-1.25.11-.58.66-.97,1.24-.86,1.44.26,2.58,1.26,3.16,2.7.2.04.4.05.6.05,1.83,0,3.32-1.5,3.32-3.34h0Z"/>
  <path class="cls-1" d="M80.24,52.79c-.4,0-.79.07-1.17.21-.34.13-.72.07-1.01-.15-.29-.22-.45-.57-.42-.94,0-.03,0-.05,0-.08,0-.19-.01-.38-.04-.56-.3-2-2.17-3.5-4.34-3.5-1.94,0-3.62,1.16-4.19,2.88-.09.28-.3.51-.57.64-.27.12-.58.13-.85.02-.4-.16-.82-.25-1.25-.25-1.83,0-3.32,1.5-3.32,3.34,0,.56.13,1.1.4,1.59.14.26.17.56.08.84-.09.28-.29.51-.56.64-.94.45-1.55,1.42-1.55,2.47,0,1.46,1.82,2.73,2.72,2.73,1.27,0,3.22-.92,3.22-2.15,0-.13-.02-.25-.05-.37-1.16-.61-1.95-1.83-1.95-3.23,0-.59.48-1.07,1.07-1.07s1.07.48,1.07,1.07.37,1.15.9,1.38c.07.02.13.04.19.07.13.04.26.06.4.06.55,0,1.05-.3,1.32-.78.28-.52.93-.71,1.45-.43.52.28.71.93.43,1.46-.55,1.03-1.56,1.71-2.69,1.87,0,1.52-.96,2.66-2.18,3.38.6.62,1.36,1.11,2.31,1.47.73-1.61,2.59-1.65,4.27-1.68,0,0,.01,0,.02,0h1.32c1.43,0,2.59-1.17,2.59-2.6,0-.18-.02-.35-.05-.54-.16-.57-.58-1.52-1.67-1.72-.58-.11-.96-.67-.86-1.25.11-.58.66-.97,1.24-.86,1.44.27,2.58,1.26,3.16,2.7.2.04.4.05.6.05,1.83,0,3.32-1.5,3.32-3.34s-1.49-3.34-3.32-3.34Z"/>
</svg>