<?xml version="1.0" encoding="UTF-8"?>
<svg id="Capa_1" data-name="Capa 1" xmlns="http://www.w3.org/2000/svg" xmlns:xlink="http://www.w3.org/1999/xlink" viewBox="0 0 326.77 263.85">
  <defs>
    <style>
      .cls-1 {
        fill: #25ccc7;
      }

      .cls-1, .cls-2, .cls-3, .cls-4, .cls-5, .cls-6, .cls-7, .cls-8, .cls-9, .cls-10 {
        stroke-width: 0px;
      }

      .cls-2 {
        fill: url(#Degradado_sin_nombre_19);
      }

      .cls-3 {
        fill: #02846b;
      }

      .cls-4 {
        fill: url(#linear-gradient);
      }

      .cls-5 {
        fill: #003f3f;
      }

      .cls-6 {
        fill: #00635e;
      }

      .cls-11 {
        filter: url(#drop-shadow-1);
      }

      .cls-7 {
        fill: #fefefd;
      }

      .cls-8 {
        fill: #ff8532;
      }

      .cls-9 {
        fill: #ed4a0a;
      }

      .cls-10 {
        fill: url(#linear-gradient-2);
      }
    </style>
    <filter id="drop-shadow-1" filterUnits="userSpaceOnUse">
      <feOffset dx="6" dy="6"/>
      <feGaussianBlur result="blur" stdDeviation="4"/>
      <feFlood flood-color="#a5a8ab" flood-opacity=".3"/>
      <feComposite in2="blur" operator="in"/>
      <feComposite in="SourceGraphic"/>
    </filter>
    <linearGradient id="linear-gradient" x1="568.08" y1="439.56" x2="586.2" y2="439.56" gradientTransform="translate(-620.34 -77.91) rotate(-17.27)" gradientUnits="userSpaceOnUse">
      <stop offset="0" stop-color="#fffc6f"/>
      <stop offset=".02" stop-color="#f0f972"/>
      <stop offset=".11" stop-color="#c3f37c"/>
      <stop offset=".2" stop-color="#9cee85"/>
      <stop offset=".29" stop-color="#7be98d"/>
      <stop offset=".4" stop-color="#60e594"/>
      <stop offset=".51" stop-color="#4be298"/>
      <stop offset=".63" stop-color="#3ce09c"/>
      <stop offset=".77" stop-color="#33df9e"/>
      <stop offset="1" stop-color="#31df9f"/>
    </linearGradient>
    <linearGradient id="Degradado_sin_nombre_19" data-name="Degradado sin nombre 19" x1="61.29" y1="131.93" x2="326.77" y2="131.93" gradientUnits="userSpaceOnUse">
      <stop offset="0" stop-color="#e2fabe"/>
      <stop offset="1" stop-color="#fff"/>
    </linearGradient>
    <linearGradient id="linear-gradient-2" x1="305.77" y1="-3266.33" x2="313.77" y2="-3266.33" gradientTransform="translate(-2315.02 2451.45) rotate(39.56)" gradientUnits="userSpaceOnUse">
      <stop offset="0" stop-color="#2ed474"/>
      <stop offset=".23" stop-color="#2ad17a"/>
      <stop offset=".56" stop-color="#20ca8c"/>
      <stop offset=".94" stop-color="#10bfaa"/>
      <stop offset="1" stop-color="#0dbdb0"/>
    </linearGradient>
  </defs>
  <g>
    <g class="cls-11">
      <path class="cls-4" d="M69.95,167.8c1.52,4.79-1.13,9.85-5.91,11.31-4.79,1.46-9.9-1.24-11.41-6.03s1.13-9.85,5.91-11.31,9.9,1.24,11.41,6.03Z"/>
      <path class="cls-2" d="M279.44,16.02c-28.34-25.26-63.06-16.61-94.08-1.65-12.8,6.17-25.25,14.13-38.95,18.31-20.38,6.22-44.07,2.29-62.49,14.48-16.98,11.24-25.77,33.45-21.6,52.99,3.24,15.19,13.14,27.95,17.19,42.87,4.5,16.6.77,33.73,2.8,50.57,3.26,27.06,22.07,45.58,45.92,57.87,119.82,61.72,279.28-121.29,151.22-235.44Z"/>
    </g>
    <path class="cls-10" d="M1.18,127.49c1.57-1.54,4.12-1.55,5.7,0,1.58,1.54,1.58,4.04,0,5.59-1.57,1.54-4.12,1.55-5.7,0-1.58-1.54-1.58-4.04,0-5.59Z"/>
    <g>
      <path class="cls-9" d="M181.4,246.12c-.17,2.61-2.47,4.58-5.13,4.42s-4.68-2.42-4.51-5.02,2.47-4.58,5.13-4.42c2.66.17,4.68,2.42,4.51,5.02Z"/>
      <path class="cls-9" d="M188.01,254.15c-.08,1.16-1.1,2.04-2.28,1.96-1.18-.07-2.08-1.07-2-2.23.08-1.16,1.1-2.04,2.28-1.96,1.18.07,2.08,1.07,2,2.23Z"/>
    </g>
  </g>
  <g>
    <path class="cls-3" d="M187.6,199.41c21.66,0,43.32.04,64.98-.04,2.93-.01,5.13.24,5.92,3.73.58,2.56,2.61,4.46,5.18,4.96,4.25.83,8.62.8,12.89-.01,1.81-.34,3.33-1.57,4.28-3.24,3.01-5.34,3.73-11.65.33-16.15-4.53-5.99-5.87-12.93-8.8-19.36-1.06-2.33-.58-3.88.69-5.85,13.8-21.58,4.49-48.61-19.7-56.91-3.11-1.07-4.38-2.82-5.37-5.68-4.04-11.62-8.28-23.17-12.51-34.72-1.98-5.4-1.96-5.5,3.6-5.66,16.62-.48,29.73-15.29,27.92-31.73-.46-4.21-2.41-7.77-6.82-8.96-4.02-1.08-7.55.07-10.25,3.43-1.81,2.26-1.84,4.86-1.89,7.56-.14,7.29-3.58,10.67-10.78,10.71-7,.04-14,0-20.99.03-4.14.02-6.98,2.21-8.5,5.87-1.53,3.68-1.34,7.86,2.01,10,5.72,3.66,6.52,9.64,8.85,15.01,1.51,3.46.73,5.64-2.05,8.09-13.7,12.12-27.14,24.53-40.87,36.61-2.26,1.99-4.17,5.31-7.63,5.16-8.61-.38-17.21-1.21-25.81-1.78-2.06-.14-2.71-1.36-3.36-3.06-3.15-8.23-6.39-16.42-9.67-24.6-3.49-8.7-2.3-7.3,4.54-7.31,5.8-.01,9.7-3.44,10.26-8.79.5-4.75-2.78-9.73-7.95-10.6-10.78-1.83-21.62-3.4-32.49-4.53-6.27-.65-10.23,3.86-10.4,10.61-.21,8.87,2.76,13.15,9.76,13.23,3.03.04,4.51,1.15,5.53,3.81,4.48,11.63,9.04,23.24,13.65,34.82.99,2.48,1.24,4.68-.31,7.07-4.85,7.48-3.77,21.23,3.55,27.11,2.29,1.84,1.46,3.23-.33,4.77-3.14,2.72-6.08,5.68-9.32,8.27-5.91,4.72-10.42,11.25-17.97,13.86-1.67.58-2.57,2.03-3.28,3.59-5.02,11.08.4,19.79,12.32,19.77,1,0,2,.03,3-.02,3.86-.2,7.02-2.02,7.9-5.7.83-3.48,2.82-3.39,5.42-3.39,21.49.04,42.99.02,64.48.03ZM189.46,262.26c1.39.3,3.29.59,3.22-1.48-.06-2.03-2-1.53-3.46-1.4-1.31.12-3.32-1.01-3.22,1.53.1,2.47,2.04,1.35,3.46,1.35Z"/>
    <path class="cls-5" d="M187.6,199.41c-21.49,0-42.99.02-64.48-.02-2.61,0-4.6-.09-5.42,3.39-.88,3.68-4.04,5.5-7.9,5.7-1,.05-2,.01-3,.02-11.92.02-17.34-8.69-12.32-19.77.71-1.56,1.6-3.02,3.28-3.59,7.55-2.61,12.07-9.14,17.97-13.86,3.24-2.59,6.18-5.55,9.32-8.27,1.79-1.55,2.62-2.93.33-4.77-7.31-5.88-8.4-19.62-3.55-27.11,1.55-2.39,1.29-4.59.31-7.07-4.61-11.58-9.17-23.19-13.65-34.82-1.02-2.66-2.5-3.77-5.53-3.81-6.99-.08-9.97-4.36-9.76-13.23.16-6.75,4.12-11.26,10.4-10.61,10.87,1.13,21.71,2.7,32.49,4.53,5.17.88,8.44,5.85,7.95,10.6-.56,5.35-4.46,8.78-10.26,8.79-6.83.01-8.03-1.38-4.54,7.31,3.28,8.18,6.53,16.37,9.67,24.6.65,1.7,1.3,2.93,3.36,3.06,8.61.57,17.2,1.4,25.81,1.78,3.46.15,5.37-3.17,7.63-5.16,13.73-12.08,27.17-24.49,40.87-36.61,2.77-2.46,3.56-4.63,2.05-8.09-2.34-5.37-3.14-11.35-8.85-15.01-3.35-2.14-3.54-6.32-2.01-10,1.52-3.66,4.36-5.84,8.5-5.87,7-.04,14,.01,20.99-.03,7.21-.04,10.64-3.42,10.78-10.71.05-2.7.08-5.31,1.89-7.56,2.7-3.36,6.23-4.51,10.25-3.43,4.41,1.19,6.36,4.75,6.82,8.96,1.8,16.43-11.3,31.24-27.92,31.73-5.56.16-5.58.26-3.6,5.66,4.23,11.55,8.47,23.1,12.51,34.72.99,2.86,2.26,4.61,5.37,5.68,24.19,8.3,33.5,35.33,19.7,56.91-1.26,1.98-1.75,3.52-.69,5.85,2.94,6.43,4.28,13.37,8.8,19.36,3.4,4.5,2.68,10.81-.33,16.15-.94,1.67-2.47,2.9-4.28,3.24-4.27.81-8.63.84-12.89.01-2.57-.5-4.6-2.4-5.18-4.96-.79-3.49-2.99-3.74-5.92-3.73-21.66.08-43.32.04-64.98.04ZM133.2,148.37c-2.81-4.22-3.02-8.31.63-12.2,2.71-2.9,5.82-4.25,9.78-2.7,4.47,1.75,6.65,5.46,6.44,11.13-.03.83-.13,1.65-.2,2.48-1.44.59-1.97,1.41-1.43,3.1,1.91,5.91,4.32,7.51,10.53,7.1,20.56-1.35,41.13-2.59,61.69-3.93,7.46-.49,14.91-1.16,22.36-1.69,3.18-.23,3.74-1.63,2.08-4.19-1.39-4.07-2.81-8.14-4.17-12.23-.68-2.04-2.02-2.66-4.13-2.77-10.75-.56-21.49-1.34-32.23-1.94-13.57-.76-27.19-.96-40.69-2.32-7.26-.74-14.53-.5-21.8-1.49-11.2-1.52-19.74,10.07-15.9,20.8,2.36,7.26,9.29,11.8,16.46,10.78,1.1-.16,2.85-.05,1.99-1.79-.95-1.94-1.25-4.8-4.36-4.82-2.89-.02-5.01-1.55-7.06-3.31ZM120.97,192.24c1.58.18,2.19.3,2.8.3,43.15,0,86.29,0,129.44,0,2,0,3.74.09,4.87-2.38,1.79-3.93.27-7.15-1.43-10.37-1.14-2.15-3.07-1.21-4.87-.79-16.71,3.82-32.28-1.71-41.22-15.12-1.91-2.86-3.77-3.64-6.85-3.42-14.89,1.05-29.8,1.99-44.7,2.98-.94.06-2.33-.25-2.42,1.04-.06.83.83,1.73,1.3,2.6.8,1.47,1.78,1.1,2.86.32,2.22-1.62,3.87-.54,4.89,1.43,1.14,2.19-.58,3.42-2.17,4.36-2.57,1.53-5.24,2.89-7.9,4.28-1.81.95-3.73,3.17-5.71.83-1.81-2.14-.98-4.21,1.27-5.93,2.19-1.68.28-3.34-.56-4.76-1.01-1.7-2.21-.77-3.25.21-8.52,7.91-17.05,15.81-26.33,24.42ZM270.71,183.07c-8.08-22.74-16.02-45.17-24.01-67.58-6.15-17.25-12.47-34.44-18.45-51.75-1.09-3.15-2.9-4.08-5.52-3.25-3.56,1.13-.58,3.45-.12,4.73,13.38,37.85,27.01,75.61,40.34,113.47,1.47,4.17,3.27,5.75,7.77,4.37ZM241.86,173.54c2.89.08,6-.04,9.07-1.01,1.49-.47,2.62-1.15,2.13-2.7-1.18-3.78-2.58-7.48-3.96-11.19-.41-1.09-1.42-1.27-2.49-1.12-9.17,1.27-18.4,1.69-27.64,2.02-.77.03-1.84.12-2.23.62-.84,1.05.33,1.76.93,2.45,6.32,7.24,14.07,11.41,24.19,10.94ZM229.56,47.51c-3.66,0-7.33.05-10.99-.02-2.56-.04-5.12.53-5.2,3.37-.08,2.97,2.79,3.49,5.11,3.54,6.16.15,12.37.5,18.47-.11,4.67-.47,9.59-.77,13.71-3.85,6.26-4.67,9.69-10.49,9.72-18.56.01-2.86.91-5.78-2.68-6.07-3.18-.26-3.56,2.69-3.64,5.38-.3,10.52-6.39,16.3-17.01,16.31-2.5,0-5,0-7.49,0ZM268.46,158.09c10.86-15.32,1.51-40.15-15.81-44.31,5.35,15,10.53,29.52,15.81,44.31ZM118.38,79.33c4.81,0,9.63-.02,14.44,0,2.36.01,4.4-.46,4.61-3.31.21-2.81-1.58-3.62-4.02-3.95-9.37-1.27-18.74-2.58-28.08-4.03-3.37-.52-5.68-.06-5.57,4,.09,3.36-1.01,7.43,4.67,7.3,4.65-.11,9.3-.02,13.95-.02ZM178.65,122.79c4.91.82,8.2.67,11.58-2.6,9.93-9.6,20.32-18.74,30.51-28.07q4-3.66,1.22-8.58c-14.25,12.92-28.47,25.8-43.31,39.25ZM196.22,123.2c3.52.66,6.37,1.43,9.4,1.27,1.64-.08,2.89-.59,3.8-1.93,4.71-6.86,10.71-12.19,18.45-15.43,1.83-.77,2.59-1.82,1.68-3.86-.8-1.81-1.29-3.76-1.95-5.64-.65-1.85-1.59-2.35-3.22-.81-9.16,8.63-18.36,17.22-28.15,26.38ZM133.01,119.73c-1.08-2.64-2.29-5.53-3.44-8.45-3.1-7.84-6.28-15.66-9.19-23.57-1-2.73-2.98-2.5-4.8-2.01-2.55.69-.7,2.58-.31,3.61,4.09,10.65,8.35,21.24,12.56,31.84.41,1.02.47,2.55,2.2,1.81,1.32-.57,2.91-1,2.97-3.24ZM140.42,165.75c-3.06-1.08-5.47-3.58-8.29-.93-6.06,5.68-12.34,11.12-18.46,16.73-.67.61-2.67,1.81-1.04,2.47,1.84.75,2.87,4.65,5.57,2.23,7.5-6.72,14.83-13.65,22.22-20.5ZM233.35,126.35c2.98.18,4.41-.47,3.18-3.06-1.65-3.5-1.05-9.33-4.73-10.21-3.92-.94-7.65,3.06-10.85,5.93-1.23,1.1-2.37,2.3-3.49,3.52-1.79,1.94-1.18,2.82,1.31,2.89,5.1.13,10.24-.28,14.59.93ZM100.17,195.64c-.54,4.12-.21,7.22,5.43,6.92,4.35-.23,6.93-.99,6.6-6.18-.37-5.94-.96-6.64-6.48-7-4.9-.32-6.3,1.89-5.55,6.26ZM270.22,202.34c5.22,1.08,6.16-1.77,5.93-6.24-.28-5.61-1.06-6.66-6.19-6.63-5.06.03-5.68,1.14-6,7.35-.25,4.85,1.82,6.3,6.25,5.52ZM140.82,145.42c1.54-.43,2.93-1.29,2.89-2.91-.05-1.83-1.41-3.01-3.28-2.91-1.6.08-2.91,1.22-2.88,2.82.03,1.83,1.43,2.8,3.27,3.01Z"/>
    <path class="cls-3" d="M120.97,192.24c9.28-8.61,17.81-16.51,26.33-24.42,1.05-.97,2.25-1.91,3.25-.21.84,1.42,2.76,3.08.56,4.76-2.25,1.72-3.08,3.79-1.27,5.93,1.97,2.33,3.89.11,5.71-.83,2.65-1.39,5.32-2.76,7.9-4.28,1.59-.94,3.31-2.17,2.17-4.36-1.03-1.97-2.67-3.05-4.89-1.43-1.08.79-2.06,1.15-2.86-.32-.47-.87-1.36-1.76-1.3-2.6.09-1.29,1.48-.98,2.42-1.04,14.9-.99,29.8-1.93,44.7-2.98,3.08-.22,4.95.56,6.85,3.42,8.95,13.41,24.51,18.94,41.22,15.12,1.8-.41,3.74-1.36,4.87.79,1.7,3.22,3.22,6.44,1.43,10.37-1.13,2.47-2.87,2.38-4.87,2.38-43.15,0-86.29,0-129.44,0-.61,0-1.22-.13-2.8-.3Z"/>
    <path class="cls-3" d="M126.16,147.51c-3.83-10.73,4.7-22.32,15.9-20.8,7.26.99,14.54.75,21.8,1.49,13.5,1.37,27.12,1.56,40.69,2.32,10.75.6,21.48,1.38,32.23,1.94,2.11.11,3.46.73,4.13,2.77,1.36,4.09,2.78,8.15,4.17,12.23-29.6,0-59.19,0-88.79-.04-2.15,0-4.3-.22-6.45-.34.07-.83.17-1.65.2-2.48.21-5.67-1.97-9.38-6.44-11.13-3.95-1.55-7.06-.19-9.78,2.7-3.65,3.9-3.45,7.98-.63,12.2-2.43.39-4.73-.29-7.04-.86Z"/>
    <path class="cls-8" d="M270.71,183.07c-4.5,1.37-6.31-.2-7.77-4.37-13.32-37.87-26.95-75.63-40.34-113.47-.45-1.28-3.43-3.6.12-4.73,2.62-.83,4.44.1,5.52,3.25,5.99,17.31,12.3,34.5,18.45,51.75,7.99,22.41,15.93,44.84,24.01,67.58Z"/>
    <path class="cls-1" d="M149.85,147.07c2.15.12,4.3.34,6.45.34,29.6.03,59.19.03,88.79.04,1.65,2.56,1.09,3.97-2.08,4.19-7.46.53-14.9,1.21-22.36,1.69-20.56,1.34-41.13,2.58-61.69,3.93-6.21.41-8.62-1.19-10.53-7.1-.55-1.69-.02-2.51,1.43-3.1Z"/>
    <path class="cls-3" d="M241.86,173.54c-10.12.47-17.87-3.7-24.19-10.94-.6-.69-1.77-1.41-.93-2.45.39-.49,1.46-.59,2.23-.62,9.24-.32,18.47-.75,27.64-2.02,1.07-.15,2.08.04,2.49,1.12,1.38,3.71,2.78,7.42,3.96,11.19.49,1.56-.64,2.24-2.13,2.7-3.07.96-6.18,1.09-9.07,1.01Z"/>
    <path class="cls-6" d="M229.56,47.51c2.5,0,5,0,7.49,0,10.62,0,16.71-5.8,17.01-16.31.08-2.7.46-5.65,3.64-5.38,3.58.29,2.69,3.21,2.68,6.07-.03,8.07-3.46,13.89-9.72,18.56-4.12,3.08-9.04,3.38-13.71,3.85-6.1.62-12.31.26-18.47.11-2.32-.06-5.19-.57-5.11-3.54.08-2.84,2.64-3.41,5.2-3.37,3.66.06,7.33.02,10.99.02Z"/>
    <path class="cls-3" d="M268.46,158.09c-5.27-14.78-10.46-29.31-15.81-44.31,17.32,4.15,26.67,28.98,15.81,44.31Z"/>
    <path class="cls-7" d="M118.38,79.33c-4.65,0-9.3-.08-13.95.02-5.68.13-4.59-3.94-4.67-7.3-.11-4.06,2.21-4.52,5.57-4,9.35,1.44,18.71,2.75,28.08,4.03,2.44.33,4.23,1.14,4.02,3.95-.21,2.85-2.25,3.32-4.61,3.31-4.81-.02-9.63,0-14.44,0Z"/>
    <path class="cls-8" d="M178.65,122.79c14.85-13.45,29.06-26.34,43.31-39.25q2.76,4.9-1.22,8.58c-10.19,9.33-20.58,18.47-30.51,28.07-3.38,3.27-6.67,3.41-11.58,2.6Z"/>
    <path class="cls-3" d="M196.22,123.2c9.79-9.17,18.99-17.75,28.15-26.38,1.63-1.54,2.57-1.03,3.22.81.67,1.87,1.15,3.83,1.95,5.64.91,2.04.15,3.09-1.68,3.86-7.74,3.24-13.74,8.56-18.45,15.43-.92,1.34-2.16,1.84-3.8,1.93-3.03.15-5.87-.61-9.4-1.27Z"/>
    <path class="cls-3" d="M133.01,119.73c-.06,2.24-1.65,2.67-2.97,3.24-1.73.74-1.8-.79-2.2-1.81-4.21-10.61-8.47-21.19-12.56-31.84-.39-1.03-2.24-2.92.31-3.61,1.81-.49,3.79-.72,4.8,2.01,2.91,7.91,6.09,15.73,9.19,23.57,1.15,2.92,2.36,5.81,3.44,8.45Z"/>
    <path class="cls-8" d="M140.42,165.75c-7.39,6.85-14.72,13.77-22.22,20.5-2.7,2.42-3.73-1.48-5.57-2.23-1.63-.66.37-1.86,1.04-2.47,6.12-5.61,12.4-11.05,18.46-16.73,2.82-2.65,5.23-.15,8.29.93Z"/>
    <path class="cls-3" d="M233.35,126.35c-4.35-1.21-9.49-.8-14.59-.93-2.49-.07-3.1-.95-1.31-2.89,1.12-1.21,2.27-2.41,3.49-3.52,3.2-2.88,6.93-6.88,10.85-5.93,3.69.88,3.08,6.71,4.73,10.21,1.23,2.6-.2,3.24-3.18,3.06Z"/>
    <path class="cls-6" d="M100.17,195.64c-.75-4.38.64-6.58,5.55-6.26,5.52.36,6.11,1.07,6.48,7,.33,5.19-2.25,5.95-6.6,6.18-5.63.3-5.97-2.8-5.43-6.92Z"/>
    <path class="cls-6" d="M270.22,202.34c-4.44.78-6.5-.67-6.25-5.52.32-6.2.93-7.32,6-7.35,5.13-.03,5.91,1.02,6.19,6.63.23,4.47-.71,7.31-5.93,6.24Z"/>
    <path class="cls-1" d="M126.16,147.51c2.31.58,4.61,1.26,7.04.86,2.04,1.76,4.17,3.29,7.06,3.31,3.1.02,3.41,2.88,4.36,4.82.86,1.75-.89,1.64-1.99,1.79-7.17,1.02-14.1-3.52-16.46-10.78Z"/>
    <path class="cls-3" d="M140.82,145.42c-1.84-.2-3.24-1.17-3.27-3.01-.03-1.6,1.28-2.74,2.88-2.82,1.87-.1,3.23,1.09,3.28,2.91.04,1.63-1.35,2.48-2.89,2.91Z"/>
  </g>
</svg>