<?xml version="1.0" encoding="UTF-8"?>
<svg id="Capa_1" data-name="Capa 1" xmlns="http://www.w3.org/2000/svg" xmlns:xlink="http://www.w3.org/1999/xlink" viewBox="0 0 326.77 268.05">
  <defs>
    <style>
      .cls-1 {
        fill: #25ccc7;
      }

      .cls-1, .cls-2, .cls-3, .cls-4, .cls-5, .cls-6, .cls-7, .cls-8, .cls-9, .cls-10 {
        stroke-width: 0px;
      }

      .cls-2 {
        fill: url(#Degradado_sin_nombre_19);
      }

      .cls-3 {
        fill: #02846b;
      }

      .cls-4 {
        fill: url(#linear-gradient);
      }

      .cls-5 {
        fill: #003f3f;
      }

      .cls-6 {
        fill: #00635e;
      }

      .cls-11 {
        filter: url(#drop-shadow-1);
      }

      .cls-7 {
        fill: #fefefd;
      }

      .cls-8 {
        fill: #ff8532;
      }

      .cls-9 {
        fill: #ed4a0a;
      }

      .cls-10 {
        fill: url(#linear-gradient-2);
      }
    </style>
    <filter id="drop-shadow-1" filterUnits="userSpaceOnUse">
      <feOffset dx="6" dy="6"/>
      <feGaussianBlur result="blur" stdDeviation="4"/>
      <feFlood flood-color="#a5a8ab" flood-opacity=".3"/>
      <feComposite in2="blur" operator="in"/>
      <feComposite in="SourceGraphic"/>
    </filter>
    <linearGradient id="linear-gradient" x1="585.74" y1="323.3" x2="603.86" y2="323.3" gradientTransform="translate(-602.68 38.35) rotate(-17.27)" gradientUnits="userSpaceOnUse">
      <stop offset="0" stop-color="#fffc6f"/>
      <stop offset=".02" stop-color="#f0f972"/>
      <stop offset=".11" stop-color="#c3f37c"/>
      <stop offset=".2" stop-color="#9cee85"/>
      <stop offset=".29" stop-color="#7be98d"/>
      <stop offset=".4" stop-color="#60e594"/>
      <stop offset=".51" stop-color="#4be298"/>
      <stop offset=".63" stop-color="#3ce09c"/>
      <stop offset=".77" stop-color="#33df9e"/>
      <stop offset="1" stop-color="#31df9f"/>
    </linearGradient>
    <linearGradient id="Degradado_sin_nombre_19" data-name="Degradado sin nombre 19" x1="61.29" y1="131.93" x2="326.77" y2="131.93" gradientUnits="userSpaceOnUse">
      <stop offset="0" stop-color="#e2fabe"/>
      <stop offset="1" stop-color="#fff"/>
    </linearGradient>
    <linearGradient id="linear-gradient-2" x1="395.45" y1="-3017" x2="403.45" y2="-3017" gradientTransform="translate(-2225.37 2202.09) rotate(39.56)" gradientUnits="userSpaceOnUse">
      <stop offset="0" stop-color="#2ed474"/>
      <stop offset=".23" stop-color="#2ad17a"/>
      <stop offset=".56" stop-color="#20ca8c"/>
      <stop offset=".94" stop-color="#10bfaa"/>
      <stop offset="1" stop-color="#0dbdb0"/>
    </linearGradient>
  </defs>
  <g>
    <g class="cls-11">
      <path class="cls-4" d="M69.95,167.8c1.52,4.79-1.13,9.85-5.91,11.31-4.79,1.46-9.9-1.24-11.41-6.03s1.13-9.85,5.91-11.31,9.9,1.24,11.41,6.03Z"/>
      <path class="cls-2" d="M279.44,16.02c-28.34-25.26-63.06-16.61-94.08-1.65-12.8,6.17-25.25,14.13-38.95,18.31-20.38,6.22-44.07,2.29-62.49,14.48-16.98,11.24-25.77,33.45-21.6,52.99,3.24,15.19,13.14,27.95,17.19,42.87,4.5,16.6.77,33.73,2.8,50.57,3.26,27.06,22.07,45.58,45.92,57.87,119.82,61.72,279.28-121.29,151.22-235.44Z"/>
    </g>
    <path class="cls-10" d="M1.18,127.49c1.57-1.54,4.12-1.55,5.7,0,1.58,1.54,1.58,4.04,0,5.59-1.57,1.54-4.12,1.55-5.7,0-1.58-1.54-1.58-4.04,0-5.59Z"/>
    <g>
      <path class="cls-9" d="M181.4,246.12c-.17,2.61-2.47,4.58-5.13,4.42s-4.68-2.42-4.51-5.02,2.47-4.58,5.13-4.42c2.66.17,4.68,2.42,4.51,5.02Z"/>
      <path class="cls-9" d="M188.01,254.15c-.08,1.16-1.1,2.04-2.28,1.96-1.18-.07-2.08-1.07-2-2.23.08-1.16,1.1-2.04,2.28-1.96,1.18.07,2.08,1.07,2,2.23Z"/>
    </g>
  </g>
  <path class="cls-3" d="M195.5,212.97c25.48,0,50.97,0,76.45,0,6.14,0,7.62-1.5,7.63-7.67.02-13.49.01-26.98,0-40.47,0-2.78-1.23-6.7.13-8.09,2.2-2.24,4.89,1.33,7.5,2.03,2.29.61,3.99-.09,5.04-2.08,1-1.9.36-3.63-1.31-4.82-1.21-.86-2.58-1.51-3.93-2.15-16.11-7.57-32.2-15.18-48.37-22.62-2.98-1.37-4.19-3.08-4.12-6.45.22-10.49.03-20.98.11-31.48.02-2.99-.7-5.48-2.81-7.7-9.85-10.38-19.6-20.84-29.42-31.24-1.51-1.6-2.85-3.06-2.76-5.56.18-5.32.17-10.66.01-15.99-.08-2.81.89-3.99,3.74-3.74,3.04.27,5.6-1.09,5.98-4.04.46-3.58-2.93-4.36-5.44-4.46-4.02-.16-4.59-2.21-4.27-5.45.13-1.31.12-2.71-.21-3.96-.45-1.72-1.68-2.89-3.58-2.98-2.14-.1-3.5,1.14-4.02,3.06-.34,1.25-.34,2.66-.18,3.97.41,3.37-.46,5.21-4.35,5.39-2.53.12-5.79.9-5.39,4.53.35,3.24,3.07,4.18,5.98,3.93,3.33-.29,3.86,1.44,3.77,4.23-.15,4.66-.21,9.33.02,13.99.16,3.1-.91,5.27-3.06,7.46-9.45,9.62-18.7,19.42-28.06,29.12-2.66,2.76-4.02,5.76-3.93,9.79.25,10.49,0,20.98.15,31.47.04,2.87-.8,4.6-3.5,5.82-9.7,4.39-19.32,8.95-28.96,13.47-7.53,3.54-15.05,7.11-22.55,10.69-1.72.82-3.12,1.97-3.11,4.12,0,1.69.96,2.82,2.37,3.54,1.9.97,3.53-.09,5.19-.85q5.5-2.51,5.52,3.68c0,14.32,0,28.65,0,42.97,0,7.48,1.1,8.54,8.77,8.54,24.99,0,49.97,0,74.96,0ZM197.17,267.8c1.3.35,3.17.57,3.11-1.48-.06-2.03-2-1.53-3.46-1.4-1.31.12-3.32-1.01-3.22,1.53.1,2.47,2.04,1.35,3.57,1.35Z"/>
  <path class="cls-5" d="M195.5,212.97c-24.99,0-49.97,0-74.96,0-7.67,0-8.77-1.07-8.77-8.54,0-14.32,0-28.65,0-42.97q0-6.19-5.52-3.68c-1.66.76-3.29,1.82-5.19.85-1.41-.72-2.36-1.85-2.37-3.54-.01-2.15,1.39-3.3,3.11-4.12,7.51-3.59,15.02-7.16,22.55-10.69,9.64-4.52,19.26-9.08,28.96-13.47,2.69-1.22,3.54-2.95,3.5-5.82-.15-10.49.11-20.99-.15-31.47-.1-4.02,1.27-7.03,3.93-9.79,9.36-9.7,18.61-19.5,28.06-29.12,2.15-2.19,3.22-4.36,3.06-7.46-.23-4.65-.17-9.33-.02-13.99.09-2.78-.44-4.51-3.77-4.23-2.91.25-5.63-.69-5.98-3.93-.39-3.63,2.86-4.41,5.39-4.53,3.89-.18,4.76-2.02,4.35-5.39-.16-1.3-.16-2.72.18-3.97.52-1.92,1.88-3.16,4.02-3.06,1.89.09,3.12,1.26,3.58,2.98.33,1.26.34,2.66.21,3.96-.32,3.25.25,5.3,4.27,5.45,2.51.1,5.9.88,5.44,4.46-.38,2.94-2.95,4.31-5.98,4.04-2.85-.25-3.82.93-3.74,3.74.16,5.32.17,10.66-.01,15.99-.08,2.5,1.25,3.96,2.76,5.56,9.82,10.4,19.58,20.86,29.42,31.24,2.11,2.22,2.83,4.72,2.81,7.7-.08,10.49.11,20.99-.11,31.48-.07,3.37,1.13,5.08,4.12,6.45,16.17,7.44,32.26,15.05,48.37,22.62,1.35.63,2.72,1.29,3.93,2.15,1.67,1.19,2.31,2.92,1.31,4.82-1.05,1.99-2.76,2.69-5.04,2.08-2.61-.69-5.3-4.27-7.5-2.03-1.37,1.39-.14,5.31-.13,8.09.01,13.49.02,26.98,0,40.47,0,6.17-1.49,7.67-7.63,7.67-25.48.01-50.97,0-76.45,0ZM185.83,166.73c-.17.28-.47.56-.49.85-.91,11.75-.2,23.51-.4,35.27-.04,2.22,1.62,2.11,3.15,2.1,5.14,0,10.28-.1,15.42.04,2.43.07,3.16-.88,3.1-3.19-.12-5.3.13-10.62-.08-15.92-.24-6.24.91-12.53-.71-18.71-1.57-5.17-5.08-8.16-10.45-8.03-4.81.11-8.31,2.6-9.55,7.58ZM130.82,204.83c3.35.45,3.87-1.55,3.84-4.25-.07-6.48-.05-12.97,0-19.46.02-2.75-.66-6.21,3.74-6.1,4.2.11,4.33,3.28,4.3,6.45-.05,4.49-.01,8.98-.01,13.47,0,10.99,0,10.92,10.89,10.04,2.32-.19,3.2-.96,3.2-3.29-.05-21.29-.03-42.57-.02-63.86,0-2.06-.63-3.52-2.91-2.28-7.57,4.13-15.94,6.63-23.19,11.42-.93.32-1.85.7-2.8.94-5.85,1.49-7.69,4.95-7.37,11.13.62,12.05.18,24.16.18,36.25q0,10.02,10.14,9.54ZM171.75,82.04c-4.44,1.29-6.16,4.21-6.14,8.84.1,33.21.07,66.43.03,99.64,0,3.46.39,6.92-.66,10.38-.81,2.66.6,4.1,3.4,4.06,1.49-.02,2.99-.05,4.48-.07,3.12.51,4.42-.47,4.33-3.96-.24-9.49-.1-18.98-.07-28.47,0-3.16.1-6.32,1.2-9.35,2.9-8.01,11.41-13.19,19.73-12.03,8.66,1.21,15.35,7.88,15.78,16.67.47,9.64.23,19.3.33,28.96.1,9.61-1,7.9,8.22,8.28,3.44.14,4.13-1.12,4.12-4.3-.1-36.64-.07-73.27-.06-109.91,0-1.82.03-3.47-1.46-5.03-8.86-9.26-17.63-18.61-26.35-28.01-1.86-2.01-3.57-2.32-5.47-.33-6.78,7.11-13.55,14.23-20.22,21.44-.71.77-.81,2.12-1.19,3.2ZM234.62,169.46c0,8.49,0,16.99,0,25.48,0,11.01,0,10.93,10.93,10.05,2.37-.19,3.21-1.03,3.16-3.33-.1-4.49.05-8.99-.05-13.49-.06-2.84,1.29-4.69,3.95-4.75,2.65-.06,4.2,1.68,4.13,4.55-.06,2.33,0,4.66,0,6.99,0,11.06,0,10.98,10.94,10.02,2.4-.21,3.12-1.13,3.12-3.39-.05-15.82-.04-31.64,0-47.46,0-2.05-.62-3.28-2.66-4.21-9.68-4.43-19.34-8.93-28.86-13.68-4.1-2.04-4.76-.63-4.69,3.24.16,9.99.05,19.98.05,29.97Z"/>
  <path class="cls-8" d="M171.75,82.04c.38-1.08.47-2.43,1.19-3.2,6.68-7.2,13.45-14.33,20.22-21.44,1.89-1.98,3.6-1.67,5.47.33,8.72,9.4,17.49,18.75,26.35,28.01,1.49,1.56,1.46,3.21,1.46,5.03,0,36.64-.04,73.27.06,109.91,0,3.18-.69,4.44-4.12,4.3-9.22-.38-8.13,1.33-8.22-8.28-.1-9.65.14-19.32-.33-28.96-.42-8.79-7.11-15.46-15.78-16.67-8.32-1.16-16.83,4.02-19.73,12.03-1.1,3.03-1.19,6.19-1.2,9.35-.03,9.49-.17,18.99.07,28.47.09,3.49-1.21,4.47-4.33,3.96-1.13-2-.82-4.19-.82-6.34,0-35.36,0-70.72-.02-106.09,0-3.48-.17-6.96-.27-10.43ZM214.03,110.87c-.22-11.01-8.36-19.15-18.84-18.86-10.04.28-18.23,8.78-18.08,18.77.16,10.36,8.55,18.44,18.98,18.28,9.92-.16,18.13-8.48,17.93-18.19Z"/>
  <path class="cls-3" d="M234.62,169.46c0-9.99.11-19.99-.05-29.97-.06-3.87.6-5.28,4.69-3.24,9.53,4.75,19.18,9.25,28.86,13.68,2.03.93,2.66,2.16,2.66,4.21-.04,15.82-.05,31.64,0,47.46,0,2.26-.72,3.18-3.12,3.39-10.94.96-10.93,1.04-10.94-10.02,0-2.33-.05-4.66,0-6.99.07-2.87-1.48-4.62-4.13-4.55-2.65.06-4.01,1.91-3.95,4.75.1,4.49-.05,8.99.05,13.49.05,2.3-.79,3.14-3.16,3.33-10.94.88-10.93.96-10.93-10.05,0-8.49,0-16.99,0-25.48ZM256.65,176.68c.16-2.7-1.47-4.09-3.81-4.27-2.29-.18-3.74,1.51-3.92,3.66-.21,2.49,1.08,4.03,3.82,4.01,2.33-.01,3.81-.89,3.9-3.4Z"/>
  <path class="cls-3" d="M130.66,146.97c7.24-4.79,15.61-7.29,23.19-11.42,2.27-1.24,2.91.22,2.91,2.28-.01,21.29-.03,42.57.02,63.86,0,2.33-.88,3.1-3.2,3.29-10.9.88-10.89.94-10.89-10.04,0-4.49-.04-8.98.01-13.47.04-3.18-.1-6.35-4.3-6.45-4.4-.11-3.72,3.35-3.74,6.1-.05,6.49-.06,12.97,0,19.46.03,2.7-.49,4.7-3.85,4.26-.05-19.29-.1-38.57-.16-57.86Z"/>
  <path class="cls-7" d="M185.83,166.73c1.24-4.98,4.74-7.47,9.55-7.58,5.37-.12,8.88,2.87,10.45,8.03-.05,7.32,0,14.64-.19,21.95-.14,4.93,2.19,11.69-1.01,14.29-3.04,2.47-9.54.53-14.5.85-3.24.21-4.23-.75-4.18-4.11.17-11.14-.05-22.28-.12-33.42Z"/>
  <path class="cls-6" d="M171.75,82.04c.09,3.48.27,6.96.27,10.43.02,35.36,0,70.72.02,106.09,0,2.14-.31,4.34.82,6.34-1.49.02-2.99.05-4.48.07-2.8.04-4.21-1.41-3.4-4.06,1.05-3.46.66-6.92.66-10.38.04-33.21.07-66.43-.03-99.64-.01-4.63,1.7-7.56,6.14-8.84Z"/>
  <path class="cls-6" d="M130.66,146.97c.05,19.29.1,38.57.16,57.86q-10.14.48-10.14-9.54c0-12.09.44-24.19-.18-36.25-.32-6.18,1.52-9.65,7.37-11.13.95-.24,1.87-.62,2.8-.94Z"/>
  <path class="cls-8" d="M185.83,166.73c.07,11.14.29,22.28.12,33.42-.05,3.36.94,4.32,4.18,4.11,4.96-.32,11.46,1.62,14.5-.85,3.2-2.6.87-9.35,1.01-14.29.2-7.31.14-14.63.19-21.95,1.62,6.18.47,12.47.71,18.71.21,5.3-.04,10.61.08,15.92.05,2.31-.67,3.26-3.1,3.19-5.14-.14-10.28-.05-15.42-.04-1.53,0-3.18.11-3.15-2.1.2-11.76-.52-23.52.4-35.27.02-.29.32-.57.49-.85Z"/>
  <path class="cls-5" d="M214.03,110.87c.2,9.7-8.01,18.03-17.93,18.19-10.43.17-18.82-7.91-18.98-18.28-.15-9.99,8.04-18.5,18.08-18.77,10.48-.29,18.61,7.85,18.84,18.86ZM205.92,110.78c.07-6.09-4.2-10.62-10.1-10.71-5.59-.08-10.72,4.79-10.85,10.32-.13,5.54,4.84,10.63,10.41,10.66,6.04.04,10.46-4.28,10.53-10.27Z"/>
  <path class="cls-5" d="M256.65,176.68c-.1,2.52-1.58,3.39-3.91,3.4-2.74.01-4.03-1.52-3.82-4.01.18-2.15,1.63-3.84,3.92-3.66,2.33.18,3.97,1.57,3.81,4.27Z"/>
  <path class="cls-1" d="M205.92,110.78c-.07,5.99-4.49,10.31-10.53,10.27-5.58-.04-10.54-5.12-10.41-10.66.13-5.52,5.26-10.4,10.85-10.32,5.9.09,10.16,4.62,10.1,10.71Z"/>
</svg>