<?xml version="1.0" encoding="UTF-8"?>
<svg id="Capa_1" data-name="Capa 1" xmlns="http://www.w3.org/2000/svg" xmlns:xlink="http://www.w3.org/1999/xlink" viewBox="0 0 103.17 96.32">
  <defs>
    <style>
      .cls-1 {
        clip-path: url(#clippath);
      }

      .cls-2 {
        fill: none;
      }

      .cls-2, .cls-3, .cls-4, .cls-5, .cls-6 {
        stroke-width: 0px;
      }

      .cls-3 {
        fill: #18786c;
      }

      .cls-4 {
        fill: #58e1d7;
      }

      .cls-5 {
        fill: #ed4a0a;
      }

      .cls-6 {
        fill: #fff;
      }
    </style>
    <clipPath id="clippath">
      <rect class="cls-2" x="9.93" y="11.57" width="80.87" height="77.34"/>
    </clipPath>
  </defs>
  <rect class="cls-4" width="103.17" height="96.32" rx="10.32" ry="10.32"/>
  <path class="cls-6" d="M15.94,34.15c-.1,2.92-.07,5.86.08,8.76.21,3.9,3.44,6.97,7.52,7.16,4.96.22,10,.22,14.96,0,4.08-.18,7.31-3.26,7.52-7.16.16-2.91.18-5.86.08-8.76-1.58-.88-2.77-2.66-3.53-5.31-.32-1.12-1.21-1.98-2.37-2.32-1.15-.33-2.38-.07-3.29.68-1.68,1.4-3.78,2.11-5.89,2.11-2.1,0-4.21-.7-5.89-2.11-.91-.76-2.14-1.02-3.29-.68-1.16.33-2.04,1.2-2.37,2.32-.76,2.65-1.95,4.43-3.53,5.31Z"/>
  <path class="cls-6" d="M76.19,86.14c-2.67.12-5.36.18-8,.18s-5.33-.06-8-.18c-4.4-.2-7.88-3.52-8.11-7.72-.09-1.7-.13-3.42-.14-5.13.63.34,1.27.89,1.96,1.49,1.5,1.3,3.21,2.78,5.73,2.78,2.28,0,3.57-.88,4.71-1.65,1.07-.72,1.99-1.35,3.85-1.35s2.78.63,3.85,1.35c1.14.77,2.42,1.65,4.71,1.65,2.52,0,4.22-1.48,5.73-2.78.69-.6,1.33-1.15,1.96-1.49,0,1.71-.05,3.43-.14,5.13-.23,4.2-3.71,7.52-8.11,7.72Z"/>
  <path class="cls-5" d="M57.11,32.88c.11.94.9,1.67,1.88,1.73.13,0,.25.02.38.02,1.57.1,2.79,1.36,2.79,2.85v3.43c0,.14.08.2.15.24.1.05.2.04.29-.03,1.66-1.21,3.91-3.03,5.26-4.89.56-.77,1.47-1.22,2.45-1.22h.02c4.37.02,8.79-.12,13.13-.41.77-.05,1.43-.5,1.73-1.17.08-.18.13-.36.15-.55.64-5.59.64-11.27,0-16.86-.11-.94-.9-1.66-1.88-1.73-6.49-.44-13.07-.52-19.56-.26-1.63.06-3.29.15-4.92.26-.98.07-1.78.79-1.88,1.73-.64,5.59-.64,11.26,0,16.85h0Z"/>
  <g id="g5352">
    <g id="g5354">
      <g class="cls-1">
        <g id="g5356">
          <g>
            <g id="g5362">
              <g id="path5364">
                <path class="cls-3" d="M14.86,41.17h-.02c-2.61,0-4.73-2.03-4.73-4.52s2.12-4.53,4.73-4.53c.05,0,.09,0,.14,0l-.13,2.26h-.01c-1.3,0-2.36,1.01-2.36,2.26s1.06,2.26,2.36,2.26h.02v2.27Z"/>
              </g>
            </g>
            <g id="g5366">
              <g id="path5368">
                <path class="cls-3" d="M47.46,41.17h-.02v-2.27h.02c1.3,0,2.36-1.01,2.36-2.26s-1.06-2.26-2.36-2.26h-.02s-.12-2.26-.12-2.26c.05,0,.09,0,.14,0,2.61,0,4.73,2.03,4.73,4.53s-2.12,4.52-4.73,4.52Z"/>
              </g>
            </g>
            <g id="g5370">
              <g id="path5372">
                <path class="cls-3" d="M25.04,35.46c0,1.14-.65,2.07-1.44,2.07s-1.44-.93-1.44-2.07.65-2.07,1.44-2.07,1.44.93,1.44,2.07"/>
              </g>
            </g>
            <g id="g5374">
              <g id="path5376">
                <path class="cls-3" d="M23.59,37.56c-.82,0-1.48-.95-1.48-2.11s.66-2.11,1.48-2.11,1.48.95,1.48,2.11-.66,2.11-1.48,2.11ZM23.59,33.43c-.77,0-1.4.91-1.4,2.03s.63,2.03,1.4,2.03,1.4-.91,1.4-2.03-.63-2.03-1.4-2.03Z"/>
              </g>
            </g>
            <g id="g5378">
              <g id="path5380">
                <path class="cls-3" d="M40.14,35.46c0,1.14-.65,2.07-1.44,2.07s-1.44-.93-1.44-2.07.65-2.07,1.44-2.07,1.44.93,1.44,2.07"/>
              </g>
            </g>
            <g id="g5382">
              <g id="path5384">
                <path class="cls-3" d="M38.69,37.56c-.82,0-1.48-.95-1.48-2.11s.66-2.11,1.48-2.11,1.48.95,1.48,2.11-.66,2.11-1.48,2.11ZM38.69,33.43c-.77,0-1.4.91-1.4,2.03s.63,2.03,1.4,2.03,1.4-.91,1.4-2.03-.63-2.03-1.4-2.03Z"/>
              </g>
            </g>
            <g id="g5386">
              <g id="path5388">
                <path class="cls-3" d="M31.14,52.33c-2.54,0-5.07-.06-7.59-.17-5.3-.24-9.5-4.24-9.77-9.3-.17-3.2-.19-6.44-.06-9.65.02-.48.35-.88.8-1.03,1.48-.55,2.33-2.53,2.79-4.11.54-1.87,2.02-3.33,3.97-3.88,1.94-.56,4.01-.13,5.53,1.15,2.47,2.06,6.19,2.06,8.65,0,1.52-1.28,3.59-1.71,5.53-1.15,1.95.56,3.43,2.01,3.97,3.88.46,1.58,1.31,3.57,2.8,4.11.45.15.77.55.79,1.02.13,3.19.12,6.44-.06,9.65-.27,5.06-4.47,9.06-9.77,9.3-2.52.11-5.05.17-7.59.17ZM16.07,33.98c-.1,2.92-.07,5.86.08,8.76.21,3.9,3.44,6.97,7.52,7.16,4.96.22,10,.22,14.96,0,4.08-.18,7.31-3.26,7.52-7.16.16-2.91.18-5.86.08-8.76-1.58-.88-2.77-2.66-3.53-5.31-.32-1.12-1.21-1.98-2.37-2.32-1.15-.33-2.38-.07-3.29.68-1.68,1.4-3.78,2.11-5.89,2.11-2.1,0-4.21-.7-5.89-2.11-.91-.76-2.14-1.02-3.29-.68-1.16.33-2.04,1.2-2.37,2.32-.76,2.65-1.95,4.43-3.53,5.31ZM14.91,33.26h0,0Z"/>
              </g>
            </g>
            <g id="g5390">
              <g id="path5392">
                <path class="cls-3" d="M49.03,34.74c-.12,0-.25-.02-.37-.06-.62-.19-.96-.83-.76-1.43,1.11-3.26,3.27-12.4,0-15.52-.99-.95-2.2-1.16-3.7-.64-1.22.42-2.14,1.18-2.15,1.19-.27.23-.64.34-.99.27-.36-.06-.65-.27-.82-.57-.07-.11-1.09-1.63-3.99-2.79-2.84-1.13-8.06-2.13-16.87-.46-.84.16-1.59.39-2.24.69-.59.27-1.3.03-1.58-.53-.28-.56-.04-1.24.55-1.51.83-.38,1.78-.68,2.81-.87,14.65-2.78,20.62,1.34,22.59,3.37.5-.3,1.15-.65,1.89-.91,2.34-.81,4.54-.4,6.18,1.17,2.14,2.05,2.87,5.71,2.17,10.9-.5,3.69-1.55,6.8-1.59,6.93-.16.48-.63.78-1.13.78Z"/>
              </g>
            </g>
            <g id="g5394">
              <g id="path5396">
                <path class="cls-3" d="M12.98,34.89c-.6,0-1.11-.43-1.18-1.01-.1-.88-.22-1.77-.35-2.72-.65-4.84-1.39-10.34.7-14.16.3-.55,1.02-.77,1.6-.48.58.29.8.98.5,1.53-1.75,3.19-1.06,8.31-.45,12.82.13.96.25,1.86.35,2.76.07.62-.4,1.18-1.05,1.25-.04,0-.09,0-.13,0Z"/>
              </g>
            </g>
            <g id="g5398">
              <g id="path5400">
                <path class="cls-3" d="M27.14,46.73h-3.95c-.65,0-1.18-.51-1.18-1.13v-1.47c0-2.73,2.33-4.96,5.19-4.96h3.95c.65,0,1.18.51,1.18,1.13v1.47c0,2.73-2.33,4.96-5.19,4.96ZM24.38,44.46h2.76c1.55,0,2.82-1.21,2.82-2.69v-.34h-2.76c-1.55,0-2.82,1.21-2.82,2.69v.34Z"/>
              </g>
            </g>
            <g id="g5402">
              <g id="path5404">
                <path class="cls-3" d="M39.09,46.73h-3.95c-2.86,0-5.19-2.22-5.19-4.96v-1.47c0-.63.53-1.13,1.18-1.13h3.95c2.86,0,5.19,2.22,5.19,4.96v1.47c0,.63-.53,1.13-1.18,1.13ZM32.33,41.43v.34c0,1.49,1.26,2.69,2.82,2.69h2.76v-.34c0-1.48-1.26-2.69-2.82-2.69h-2.76Z"/>
              </g>
            </g>
            <g id="g5410">
              <g id="path5412">
                <path class="cls-3" d="M81.93,54.72c-.31,0-.62-.12-.85-.35-2.76-2.74-7.46-4.31-12.9-4.31s-10.14,1.57-12.9,4.31c-.45.45-1.2.46-1.67.03-.47-.43-.48-1.15-.03-1.6,3.2-3.18,8.53-5,14.61-5s11.4,1.82,14.61,5c.45.45.44,1.17-.03,1.6-.23.21-.53.32-.82.32Z"/>
              </g>
            </g>
            <g id="g5414">
              <g id="path5416">
                <path class="cls-3" d="M50.83,66.67c-.12,0-.25-.02-.37-.06-.3-.09-.55-.3-.69-.57-.98-1.87-1.14-6.05.17-9.29.85-2.1,2.21-3.54,3.95-4.19,1.95-.72,3.83.01,4.69,1.82.78,1.65.59,3.9-.5,6.03-.88,1.72-2.75,4.17-6.71,6.13-.17.08-.36.13-.54.13ZM55.37,54.55c-.19,0-.4.04-.62.13-1.39.51-2.18,1.86-2.6,2.89-.85,2.1-.92,4.66-.62,6.29,2.53-1.52,3.8-3.21,4.43-4.44.92-1.8.84-3.3.46-4.1-.24-.51-.59-.77-1.05-.77Z"/>
              </g>
            </g>
            <g id="g5418">
              <g id="path5420">
                <path class="cls-3" d="M85.52,66.67c-.19,0-.37-.04-.54-.13-3.95-1.96-5.83-4.41-6.71-6.13-1.09-2.13-1.27-4.38-.5-6.03.85-1.81,2.74-2.54,4.69-1.82,1.74.64,3.1,2.09,3.95,4.19,1.31,3.24,1.15,7.42.17,9.29-.14.27-.39.48-.69.57-.12.04-.24.06-.37.06ZM80.98,54.55c-.46,0-.81.25-1.05.77-.38.8-.45,2.3.46,4.1.63,1.22,1.89,2.92,4.42,4.44.3-1.62.23-4.18-.62-6.29-.42-1.04-1.21-2.38-2.6-2.89-.23-.08-.43-.13-.62-.13Z"/>
              </g>
            </g>
            <g id="g5422">
              <g id="path5424">
                <path class="cls-3" d="M50.74,76.62h-.02c-2.75,0-4.98-2.14-4.98-4.76s2.23-4.76,4.98-4.76c.05,0,.1,0,.15,0l-.13,2.26h-.02c-1.44,0-2.61,1.12-2.61,2.5s1.17,2.5,2.61,2.5h.02v2.27Z"/>
              </g>
            </g>
            <g id="g5430">
              <g id="path5432">
                <path class="cls-3" d="M61.64,70.58c0,1.22-.69,2.21-1.54,2.21s-1.54-.99-1.54-2.21.69-2.21,1.54-2.21,1.54.99,1.54,2.21"/>
              </g>
            </g>
            <g id="g5434">
              <g id="path5436">
                <path class="cls-3" d="M60.09,72.83c-.87,0-1.58-1.01-1.58-2.25s.71-2.25,1.58-2.25,1.58,1.01,1.58,2.25-.71,2.25-1.58,2.25ZM60.09,68.4c-.83,0-1.5.98-1.5,2.18s.67,2.18,1.5,2.18,1.5-.98,1.5-2.18-.67-2.18-1.5-2.18Z"/>
              </g>
            </g>
            <g id="g5438">
              <g id="path5440">
                <path class="cls-3" d="M77.8,70.58c0,1.22-.69,2.21-1.54,2.21s-1.54-.99-1.54-2.21.69-2.21,1.54-2.21,1.54.99,1.54,2.21"/>
              </g>
            </g>
            <g id="g5442">
              <g id="path5444">
                <path class="cls-3" d="M76.26,72.83c-.87,0-1.58-1.01-1.58-2.25s.71-2.25,1.58-2.25,1.58,1.01,1.58,2.25-.71,2.25-1.58,2.25ZM76.26,68.4c-.83,0-1.5.98-1.5,2.18s.67,2.18,1.5,2.18,1.5-.98,1.5-2.18-.67-2.18-1.5-2.18Z"/>
              </g>
            </g>
            <path class="cls-3" d="M90.62,71.86c0-2.3-1.71-4.22-3.97-4.66-.03-.6-.05-1.2-.09-1.8-.04-.62-.61-1.1-1.26-1.06-.65.04-1.15.58-1.11,1.2.12,1.76.18,3.53.22,5.3-1.36.37-2.47,1.32-3.54,2.24-1.3,1.13-2.53,2.19-4.14,2.19s-2.33-.54-3.33-1.23c-1.16-.79-2.6-1.77-5.22-1.77s-4.06.98-5.22,1.77c-1.01.69-1.81,1.23-3.33,1.23-1.61,0-2.83-1.06-4.14-2.19-1.07-.93-2.17-1.87-3.54-2.24.03-1.77.1-3.54.22-5.3.04-.62-.45-1.16-1.11-1.2-.65-.04-1.22.43-1.26,1.06-.14,2.12-.22,4.26-.24,6.39,0,0,0,0,0,.01,0,0,0,0,0,.01-.02,2.24.03,4.48.15,6.71.29,5.37,4.74,9.61,10.36,9.87,2.7.12,5.43.18,8.11.18s5.4-.06,8.11-.18c5.62-.25,10.08-4.5,10.36-9.87.04-.67.05-1.35.08-2.02,2.22-.48,3.89-2.37,3.89-4.64ZM76.17,86.12c-2.67.12-5.36.18-8,.18s-5.33-.06-8-.18c-4.4-.2-7.88-3.52-8.11-7.72-.09-1.7-.13-3.42-.14-5.13.63.34,1.27.89,1.96,1.49,1.5,1.3,3.21,2.78,5.73,2.78,2.28,0,3.57-.88,4.71-1.65,1.07-.72,1.99-1.35,3.85-1.35s2.78.63,3.85,1.35c1.14.77,2.42,1.65,4.71,1.65,2.52,0,4.22-1.48,5.73-2.78.69-.6,1.33-1.15,1.96-1.49,0,1.71-.05,3.43-.14,5.13-.23,4.2-3.71,7.52-8.11,7.72ZM86.78,74.09c0-.76.02-1.51.01-2.27,0,0,0-.01,0-.02,0,0,0-.02,0-.02,0-.72-.03-1.45-.05-2.17.88.4,1.5,1.26,1.5,2.25s-.6,1.82-1.46,2.23Z"/>
            <g id="g5450">
              <g id="path5452">
                <path class="cls-3" d="M68.17,81.4c-1.96,0-3.78-1.1-4.62-2.8-.28-.57-.03-1.24.56-1.51.59-.27,1.3-.03,1.58.54.45.91,1.43,1.5,2.48,1.5s2.03-.59,2.48-1.5c.28-.57.99-.81,1.58-.54.59.27.84.94.56,1.51-.84,1.7-2.66,2.8-4.62,2.8Z"/>
              </g>
            </g>
            <g id="g5454">
              <g id="path5456">
                <path class="cls-3" d="M62.4,43.41c-.4,0-.8-.09-1.18-.27-.91-.43-1.47-1.3-1.47-2.27v-3.43c0-.31-.25-.57-.58-.59-.13,0-.26-.02-.39-.03-2.13-.14-3.84-1.72-4.07-3.75,0,0,0,0,0,0-.66-5.76-.66-11.59,0-17.35.23-2.03,1.95-3.6,4.07-3.74,1.65-.11,3.33-.2,4.98-.27,6.58-.26,13.25-.17,19.83.27,2.13.14,3.84,1.72,4.07,3.74.66,5.76.66,11.6,0,17.36-.05.42-.16.82-.33,1.2-.65,1.45-2.08,2.43-3.74,2.54-4.4.3-8.88.43-13.31.41-.21,0-.4.09-.51.25-1.53,2.1-3.98,4.1-5.77,5.4-.47.34-1.03.52-1.6.52ZM57.07,32.83c.11.94.9,1.67,1.88,1.73.13,0,.25.02.38.02,1.57.1,2.79,1.36,2.79,2.85v3.43c0,.14.08.2.15.24.1.05.2.04.29-.03,1.66-1.21,3.91-3.03,5.26-4.89.56-.77,1.47-1.22,2.45-1.22h.02c4.37.02,8.79-.12,13.13-.41.77-.05,1.43-.5,1.73-1.17.08-.18.13-.36.15-.55.64-5.59.64-11.27,0-16.86-.11-.94-.9-1.66-1.88-1.73-6.49-.44-13.07-.52-19.56-.26-1.63.06-3.29.15-4.92.26-.98.07-1.78.79-1.88,1.73-.64,5.59-.64,11.26,0,16.85h0Z"/>
              </g>
            </g>
            <g id="g5458">
              <g id="path5460">
                <path class="cls-3" d="M80.03,23.89h-16.52c-.65,0-1.18-.51-1.18-1.13s.53-1.13,1.18-1.13h16.52c.65,0,1.18.51,1.18,1.13s-.53,1.13-1.18,1.13Z"/>
              </g>
            </g>
            <g id="g5462">
              <g id="path5464">
                <path class="cls-3" d="M74.17,28.05h-10.67c-.65,0-1.18-.51-1.18-1.13s.53-1.13,1.18-1.13h10.67c.65,0,1.18.51,1.18,1.13s-.53,1.13-1.18,1.13Z"/>
              </g>
            </g>
            <g id="g5466">
              <g id="path5468">
                <path class="cls-3" d="M35.87,88.91c-.57,0-1.13-.18-1.6-.52-1.79-1.3-4.24-3.3-5.77-5.4-.11-.16-.3-.25-.51-.25h0c-4.44.02-8.92-.12-13.31-.41-1.65-.11-3.09-1.09-3.74-2.54-.17-.38-.28-.79-.33-1.2-.66-5.76-.66-11.6,0-17.35.23-2.03,1.94-3.6,4.07-3.74,6.59-.44,13.26-.53,19.83-.27,1.62.06,3.3.15,4.98.27,2.13.14,3.84,1.72,4.07,3.74.38,3.31.54,6.66.49,9.96-.01.63-.55,1.13-1.2,1.11-.65-.01-1.18-.53-1.17-1.15.05-3.21-.1-6.47-.47-9.68-.11-.94-.9-1.66-1.88-1.73-1.66-.11-3.32-.2-4.92-.26-6.48-.26-13.06-.17-19.56.26-.98.07-1.77.79-1.88,1.73-.64,5.59-.64,11.27,0,16.86.02.19.07.38.15.55.3.68.97,1.13,1.73,1.18,4.33.29,8.75.43,13.13.41h.02c.98,0,1.9.46,2.45,1.22,1.35,1.86,3.61,3.69,5.26,4.89.09.07.19.08.29.03.07-.03.15-.1.15-.24v-3.43c0-1.5,1.23-2.75,2.79-2.85h.19c.07-.02.14-.02.21-.02.97-.07,1.76-.8,1.87-1.74.1-.92.19-1.83.26-2.71.05-.62.62-1.09,1.27-1.05.65.05,1.14.59,1.09,1.21-.07.91-.16,1.85-.27,2.79-.23,2.03-1.95,3.61-4.07,3.75-.07,0-.14,0-.2.01-.06,0-.13,0-.19.01-.32.02-.57.28-.57.59v3.43c0,.97-.56,1.84-1.47,2.27-.37.18-.78.26-1.18.27Z"/>
              </g>
            </g>
            <g id="g5470">
              <g id="path5472">
                <path class="cls-3" d="M34.76,69.39h-16.52c-.65,0-1.18-.51-1.18-1.13s.53-1.13,1.18-1.13h16.52c.65,0,1.18.51,1.18,1.13s-.53,1.13-1.18,1.13Z"/>
              </g>
            </g>
            <g id="g5474">
              <g id="path5476">
                <path class="cls-3" d="M28.91,73.55h-10.67c-.65,0-1.18-.51-1.18-1.13s.53-1.13,1.18-1.13h10.67c.65,0,1.18.51,1.18,1.13s-.53,1.13-1.18,1.13Z"/>
              </g>
            </g>
          </g>
        </g>
      </g>
    </g>
  </g>
</svg>