<?xml version="1.0" encoding="UTF-8"?>
<svg id="Capa_1" data-name="Capa 1" xmlns="http://www.w3.org/2000/svg" viewBox="0 0 103.17 96.32">
  <defs>
    <style>
      .cls-1 {
        fill: #ff8434;
      }

      .cls-1, .cls-2, .cls-3, .cls-4 {
        stroke-width: 0px;
      }

      .cls-2 {
        fill: #18786c;
      }

      .cls-3 {
        fill: #58e1d7;
      }

      .cls-4 {
        fill: #fff;
      }
    </style>
  </defs>
  <rect class="cls-3" width="103.17" height="96.32" rx="10.32" ry="10.32"/>
  <g>
    <g>
      <path class="cls-1" d="M70.05,20.51c-2.92.93-5.51,3.13-6.95,6.27l6.73,3.1c1.44-3.14,1.42-6.55.22-9.38Z"/>
      <path class="cls-1" d="M55.14,20.51c2.92.93,5.51,3.13,6.95,6.27l-6.73,3.1c-1.44-3.14-1.42-6.55-.22-9.38Z"/>
      <path class="cls-1" d="M59.07,78.09l-8.07-2.94c-1.96,2.57-5.04,4.23-8.51,4.23s-6.55-1.66-8.51-4.23l-8.07,2.94c-2.12.77-3.53,2.79-3.53,5.05v6.99h40.23v-6.99c0-2.26-1.41-4.28-3.53-5.05Z"/>
      <path class="cls-4" d="M52.57,65.21c.7-1.21,1-2.6,1.3-3.96.32-1.48.64-2.97.96-4.45.18-.85.36-1.74.08-2.56-.29-.86-1.05-1.48-1.85-1.93-1.83-1.03-3.96-1.34-6.01-1.76-3.49-.73-6.9-1.84-10.14-3.31-.44-.2-.9-.41-1.38-.39-1.21.06-1.83,1.44-2.28,2.56-.5,1.25-1.17,2.53-2.35,3.18-.79.43-1.73.53-2.54.94-1.36.69-2.18,2.31-1.93,3.82.06.38.2.76.46,1.04.72.75,2,.43,2.92.89.85.42,1.24,1.4,1.56,2.3.76,2.13,1.51,4.26,2.27,6.38-1.47.27-3.14.32-4.31-.62-.5-.4-.86-.95-1.19-1.5-3.02-5.18-3.2-11.53-2.69-17.5.08-.89.17-1.8.51-2.63.58-1.4,1.8-2.41,2.97-3.37,1.36-1.11,2.72-2.22,4.08-3.33.89-.73,1.79-1.46,2.79-2.03,2.18-1.24,4.71-1.66,7.18-2.05.92-.15,1.88-.29,2.77-.02,1.51.46,5.43,2.52,6.43,3.74,1.41,1.73,2.08.83,3.62,2.64.33.39-.38,1.16-.02,1.52.34.33.53.78.71,1.22,1.43,3.49,2.65,7.11,3.03,10.86.38,3.75-.12,7.68-1.95,10.97-.43.77-.94,1.52-1.65,2.04-1.02.75-4.3,1.52-5.39.51-1.05-.97,1.42-2.09,2.04-3.17Z"/>
      <path class="cls-1" d="M74.38,25.43c-2.81-.16-6.39,1.1-8.69,3.02l-3.1,8.03c3.01.18,6.15-.85,8.51-3.07,2.37-2.22,3.46-5.15,3.27-7.98Z"/>
      <path class="cls-1" d="M50.81,25.43c2.81-.16,6.39,1.1,8.69,3.02l3.1,8.03c-3.01.18-6.15-.85-8.51-3.07-2.37-2.22-3.46-5.15-3.27-7.98Z"/>
      <path class="cls-1" d="M66.3,27.87c0,3.46-1.44,6.55-3.7,8.61-2.26-2.06-3.7-5.15-3.7-8.61s1.44-6.55,3.7-8.61c2.26,2.06,3.7,5.15,3.7,8.61Z"/>
    </g>
    <g>
      <path class="cls-2" d="M22.37,91.39c-.69,0-1.25-.56-1.25-1.26v-6.99c0-2.78,1.75-5.28,4.36-6.23l9.46-3.45c.56-.2.94-.74.94-1.34v-3.31c0-.69.56-1.26,1.25-1.26s1.25.56,1.25,1.26v3.31c0,1.65-1.04,3.14-2.59,3.71l-9.46,3.45c-1.62.59-2.71,2.15-2.71,3.87v6.99c0,.69-.56,1.26-1.25,1.26Z"/>
      <path class="cls-2" d="M62.6,91.39c-.69,0-1.25-.56-1.25-1.26v-6.99c0-1.73-1.09-3.28-2.71-3.87l-9.46-3.45c-1.55-.56-2.59-2.06-2.59-3.71v-3.31c0-.69.56-1.26,1.25-1.26s1.25.56,1.25,1.26v3.31c0,.6.38,1.14.94,1.34l9.46,3.45c2.61.95,4.36,3.46,4.36,6.23v6.99c0,.69-.56,1.26-1.25,1.26Z"/>
      <path class="cls-2" d="M42.48,80.63c-3.66,0-7.07-1.64-9.36-4.51-.43-.54-.35-1.33.2-1.77.54-.43,1.33-.35,1.76.2,1.81,2.27,4.51,3.57,7.4,3.57s5.65-1.33,7.46-3.64c.43-.55,1.22-.64,1.76-.21.55.43.64,1.22.21,1.77-2.29,2.93-5.73,4.6-9.43,4.6Z"/>
      <path class="cls-2" d="M42.48,86.01c-5.98,0-11.47-3.03-14.67-8.1-.37-.59-.2-1.36.39-1.73.59-.37,1.36-.2,1.73.39,2.74,4.34,7.43,6.93,12.55,6.93s9.81-2.59,12.55-6.93c.37-.59,1.15-.76,1.73-.39.59.37.76,1.15.39,1.73-3.2,5.07-8.69,8.1-14.67,8.1Z"/>
      <path class="cls-2" d="M42.48,64.18c-1.45,0-2.79-.47-3.59-1.27-.49-.49-.5-1.28-.01-1.78.49-.49,1.28-.5,1.77-.01.27.27.94.54,1.83.54s1.55-.27,1.83-.54c.49-.49,1.29-.48,1.77.01.49.49.48,1.29-.01,1.78-.8.79-2.14,1.27-3.59,1.27Z"/>
      <path class="cls-2" d="M37.12,57.78c-1.23,0-2.37-.52-3.04-1.4-.42-.55-.31-1.34.24-1.76.55-.42,1.34-.31,1.76.24.16.2.54.41,1.04.41s.89-.21,1.04-.41c.42-.55,1.21-.66,1.76-.24.55.42.66,1.21.24,1.76-.67.88-1.8,1.4-3.04,1.4Z"/>
      <path class="cls-2" d="M47.85,57.78c-1.23,0-2.37-.52-3.04-1.4-.42-.55-.31-1.34.24-1.76.55-.42,1.34-.31,1.76.24.16.2.54.41,1.04.41s.89-.21,1.04-.41c.42-.55,1.21-.66,1.76-.24.55.42.66,1.21.24,1.76-.67.88-1.8,1.4-3.04,1.4Z"/>
      <path class="cls-2" d="M54.2,69.88h-5.51c-.69,0-1.25-.56-1.25-1.26s.56-1.26,1.25-1.26h5.51c1.27,0,2.37-.85,2.68-2.08.81-3.19,1.78-8,1.78-12.79,0-8.94-7.26-16.21-16.18-16.21s-16.18,7.27-16.18,16.21c0,4.8.97,9.61,1.78,12.79.31,1.22,1.41,2.08,2.68,2.08h5.51c.69,0,1.25.56,1.25,1.26s-.56,1.26-1.25,1.26h-5.51c-2.41,0-4.52-1.63-5.11-3.97-.85-3.33-1.86-8.36-1.86-13.42,0-10.33,8.38-18.73,18.69-18.73s18.69,8.4,18.69,18.73c0,5.06-1.01,10.09-1.86,13.42-.6,2.34-2.7,3.97-5.11,3.97Z"/>
      <path class="cls-2" d="M53.97,62.5c-.12,0-.25-.02-.37-.06-.66-.21-1.03-.91-.82-1.57.35-1.11.52-2.26.52-3.43v-2.76c0-1.44-1.08-2.63-2.52-2.76-11.95-1.07-17.63-6.2-18.31-6.85-.39-.36-.53-.94-.3-1.45.28-.63,1.03-.91,1.66-.63.2.09.32.21.37.25.54.53,5.62,5.16,16.8,6.16,2.74.25,4.81,2.51,4.81,5.26v2.76c0,1.42-.21,2.82-.64,4.18-.17.54-.66.88-1.2.88ZM32.5,45.1s.05.04.08.07c-.03-.02-.06-.04-.08-.07Z"/>
      <path class="cls-2" d="M42.48,71.22c-3.25,0-6.36-1.18-8.8-3.33-2.21-1.95-3.7-4.56-4.27-7.42h-.34c-1.16,0-2.25-.51-3-1.39-.75-.88-1.07-2.05-.88-3.21.3-1.88,2.04-3.29,4.03-3.29,1,0,1.92-.63,2.28-1.57l2.25-5.88c.25-.65.97-.97,1.62-.72.65.25.97.98.72,1.62l-2.25,5.88c-.73,1.9-2.59,3.18-4.62,3.18-.76,0-1.44.52-1.55,1.18-.07.43.04.85.32,1.18.27.32.67.5,1.09.5h1.42c.64,0,1.18.48,1.25,1.12.6,5.45,5.3,9.63,10.75,9.63.09,0,.17,0,.26,0,3.03-.07,5.92-1.51,7.91-3.93.44-.54,1.23-.61,1.77-.17.53.44.61,1.23.17,1.77-2.46,2.98-6.03,4.75-9.79,4.84-.11,0-.22,0-.33,0Z"/>
      <path class="cls-2" d="M65.08,50.91c-.63,0-1.17-.47-1.24-1.11-.08-.69.41-1.31,1.1-1.39,10.18-1.18,17.86-9.82,17.86-20.1,0-11.16-9.06-20.25-20.2-20.25s-20.2,9.08-20.2,20.25c0,.41.02.84.05,1.31.05.69-.47,1.3-1.16,1.35-.69.05-1.29-.47-1.35-1.16-.04-.54-.06-1.03-.06-1.5,0-12.55,10.19-22.76,22.71-22.76s22.71,10.21,22.71,22.76c0,11.56-8.63,21.27-20.08,22.6-.05,0-.1,0-.15,0Z"/>
      <path class="cls-2" d="M63.26,37.76c-.25,0-.49,0-.74-.02-.69-.04-1.22-.64-1.18-1.33.04-.69.64-1.22,1.33-1.18,2.79.16,5.56-.83,7.58-2.73,1.69-1.59,2.71-3.65,2.87-5.8-2.17.13-4.3.96-5.96,2.35-.53.44-1.32.37-1.77-.16-.44-.53-.37-1.33.16-1.77,2.45-2.05,5.7-3.11,8.9-2.93.63.04,1.14.54,1.18,1.17.22,3.31-1.12,6.59-3.67,8.98-2.35,2.2-5.48,3.43-8.7,3.43Z"/>
      <path class="cls-2" d="M61.93,37.76c-3.22,0-6.36-1.23-8.7-3.43-2.55-2.39-3.89-5.67-3.67-8.98.04-.63.55-1.13,1.18-1.17,3.22-.19,6.47.89,8.93,2.95.53.45.6,1.24.16,1.77-.45.53-1.24.6-1.77.16-1.67-1.4-3.8-2.24-5.99-2.37.17,2.15,1.18,4.22,2.87,5.8,2.03,1.9,4.79,2.89,7.58,2.73.69-.04,1.29.49,1.33,1.18s-.49,1.29-1.18,1.33c-.25.01-.49.02-.74.02Z"/>
      <path class="cls-2" d="M53.82,26.47s-.06,0-.09,0c-.69-.05-1.21-.65-1.17-1.34.13-1.83.62-3.57,1.47-5.19.28-.54.91-.8,1.49-.61,1.82.58,3.48,1.5,4.94,2.71.53.44.61,1.24.17,1.77-.44.53-1.23.61-1.77.17-.93-.77-1.96-1.4-3.07-1.87-.41,1.02-.65,2.09-.73,3.2-.05.66-.6,1.17-1.25,1.17Z"/>
      <path class="cls-2" d="M62.6,37.74c-.3,0-.6-.11-.84-.33-2.61-2.38-4.11-5.86-4.11-9.54s1.5-7.16,4.11-9.54c.48-.44,1.21-.44,1.69,0,2.61,2.38,4.11,5.86,4.11,9.54s-1.5,7.16-4.11,9.54c-.24.22-.54.33-.84.33ZM62.6,21.06c-1.57,1.84-2.45,4.26-2.45,6.81s.88,4.97,2.45,6.81c1.57-1.84,2.45-4.26,2.45-6.81s-.88-4.97-2.45-6.81Z"/>
      <path class="cls-2" d="M71.38,26.47c-.65,0-1.2-.51-1.25-1.17-.08-1.11-.32-2.18-.73-3.2-1.11.47-2.14,1.09-3.07,1.87-.53.44-1.32.37-1.77-.17-.44-.53-.37-1.33.17-1.77,1.46-1.21,3.12-2.12,4.94-2.71.58-.19,1.21.07,1.49.61.85,1.62,1.34,3.37,1.47,5.19.05.69-.47,1.29-1.16,1.34-.03,0-.06,0-.09,0Z"/>
    </g>
  </g>
</svg>