<?xml version="1.0" encoding="UTF-8"?>
<svg id="Capa_1" data-name="Capa 1" xmlns="http://www.w3.org/2000/svg" viewBox="0 0 103.17 96.32">
  <defs>
    <style>
      .cls-1 {
        fill: #18786c;
      }

      .cls-1, .cls-2, .cls-3, .cls-4 {
        stroke-width: 0px;
      }

      .cls-2 {
        fill: #58e1d7;
      }

      .cls-3 {
        fill: #ed4a0a;
      }

      .cls-4 {
        fill: #fff;
      }
    </style>
  </defs>
  <rect class="cls-2" width="103.17" height="96.32" rx="10.32" ry="10.32"/>
  <g>
    <g>
      <path class="cls-1" d="M34.7,66.65c-.28,0-.55-.1-.77-.28-.25-.22-.39-.53-.39-.86v-22.73h-2.25v22.73c0,.33-.14.64-.39.86s-.58.32-.91.28c-4.05-.51-7.75-2.25-10.71-5.04-2.95-2.78-4.88-6.33-5.57-10.27-.11-.62.31-1.21.94-1.32.63-.11,1.23.31,1.34.93,1.17,6.58,6.41,11.85,12.98,13.22v-21.76c0-1.05.87-1.9,1.93-1.9h3.03c1.07,0,1.93.85,1.93,1.9v21.76c2.97-.61,5.68-1.99,7.92-4.05v-2.84c0-1.05.87-1.9,1.93-1.9h1.66c1.13-2.25,1.72-4.75,1.72-7.27,0-.48-.02-.96-.06-1.44-5.31-2.87-9.11-7.94-10.32-13.76-2-.8-4.11-1.21-6.3-1.21-8.35,0-15.46,6.14-16.54,14.28-.08.63-.66,1.07-1.3.98-.64-.08-1.08-.65-1-1.28,1.23-9.27,9.32-16.27,18.84-16.27,2.72,0,5.34.55,7.8,1.64.35.16.6.47.67.85.97,5.58,4.62,10.45,9.76,13.02.34.17.58.5.62.88.1.76.14,1.54.14,2.31,0,3.13-.8,6.23-2.32,8.96-.2.37-.59.59-1.02.59h-1.97v2.94c0,.31-.12.6-.35.81-2.95,2.86-6.82,4.72-10.91,5.23-.05,0-.1,0-.15,0Z"/>
      <path class="cls-1" d="M30.13,59.26c-.3,0-.6-.12-.82-.33l-7.73-7.61c-.36-.36-.57-.84-.57-1.35s.2-.99.57-1.35l2.14-2.11c.36-.36.85-.56,1.37-.56s1,.2,1.37.56l4.5,4.43c.22.21.34.5.34.81v6.37c0,.46-.28.88-.72,1.05-.14.06-.29.09-.44.09ZM23.49,49.97l5.48,5.39v-3.14l-3.89-3.82-1.59,1.57Z"/>
      <path class="cls-1" d="M34.7,55.47c-.15,0-.3-.03-.44-.09-.43-.18-.72-.59-.72-1.05v-6.37c0-.3.12-.59.34-.81l4.31-4.24c.36-.36.85-.56,1.37-.56s1,.2,1.37.56l2.14,2.11s0,0,0,0c.36.36.57.84.57,1.35s-.2.99-.57,1.35l-7.54,7.43c-.22.22-.52.33-.82.33ZM35.86,48.43v3.14l5.29-5.21-1.59-1.57-3.7,3.64ZM41.43,46.63"/>
      <path class="cls-1" d="M34.7,86.42h-4.57c-.64,0-1.16-.51-1.16-1.14v-42.88c0-1.05.87-1.9,1.93-1.9h3.03c1.07,0,1.93.85,1.93,1.9v42.88c0,.63-.52,1.14-1.16,1.14ZM31.29,84.14h2.25v-41.36h-2.25v41.36Z"/>
    </g>
    <g>
      <path class="cls-1" d="M56.66,49.01s-.09,0-.14,0c-10.39-1.2-18.22-9.87-18.22-20.18,0-11.2,9.26-20.32,20.65-20.32s20.65,9.12,20.65,20.32c0,10.31-7.83,18.98-18.22,20.18-.64.07-1.21-.37-1.29-1s.38-1.19,1.02-1.27c9.22-1.06,16.17-8.76,16.17-17.91,0-9.95-8.22-18.04-18.33-18.04s-18.33,8.09-18.33,18.04c0,9.15,6.95,16.85,16.17,17.91.64.07,1.09.64,1.02,1.27-.07.58-.57,1.01-1.15,1.01Z"/>
      <path class="cls-1" d="M56.66,36.89c-.3,0-.6-.12-.82-.33l-9.72-9.56c-.37-.36-.57-.84-.57-1.35s.2-.99.57-1.35l2.14-2.11c.36-.36.85-.56,1.37-.56s1,.2,1.37.56l6.48,6.38c.22.21.34.5.34.81v6.37c0,.46-.28.88-.72,1.05-.14.06-.29.09-.44.09ZM48.04,25.64l7.46,7.35v-3.14l-5.87-5.78-1.59,1.57Z"/>
      <path class="cls-1" d="M61.23,42.15c-.15,0-.3-.03-.44-.09-.43-.18-.72-.59-.72-1.05v-6.37c0-.3.12-.59.34-.81l5.66-5.57c.36-.36.85-.56,1.37-.56s1,.2,1.37.56l2.14,2.11s0,0,0,0c.75.74.75,1.95,0,2.69l-8.89,8.75c-.22.22-.52.33-.82.33ZM62.39,35.12v3.14l6.64-6.53-1.59-1.57-5.05,4.97Z"/>
      <g>
        <path class="cls-1" d="M61.23,74.79h-4.57c-.64,0-1.16-.51-1.16-1.14v-6.35c0-.63.52-1.14,1.16-1.14h4.57c.64,0,1.16.51,1.16,1.14v6.35c0,.63-.52,1.14-1.16,1.14ZM57.82,72.51h2.25v-4.06h-2.25v4.06Z"/>
        <path class="cls-1" d="M61.23,86.42h-4.57c-.64,0-1.16-.51-1.16-1.14v-6.35c0-.63.52-1.14,1.16-1.14h4.57c.64,0,1.16.51,1.16,1.14v6.35c0,.63-.52,1.14-1.16,1.14ZM57.82,84.14h2.25v-4.06h-2.25v4.06Z"/>
        <path class="cls-1" d="M61.23,57.65h-4.57c-.64,0-1.16-.51-1.16-1.14v-13.46c0-.63.52-1.14,1.16-1.14s1.16.51,1.16,1.14v12.32h2.25V20.33h-2.25v17.39c0,.63-.52,1.14-1.16,1.14s-1.16-.51-1.16-1.14v-17.77c0-1.05.87-1.9,1.93-1.9h3.03c1.07,0,1.93.85,1.93,1.9v36.56c0,.63-.52,1.14-1.16,1.14Z"/>
      </g>
    </g>
    <path class="cls-1" d="M86.85,86.42H16.41c-.64,0-1.16-.51-1.16-1.14s.52-1.14,1.16-1.14h70.44c.64,0,1.16.51,1.16,1.14s-.52,1.14-1.16,1.14Z"/>
    <rect class="cls-4" x="45.36" y="56.35" width="38.69" height="10.81"/>
    <rect class="cls-4" x="43.63" y="73.82" width="43.03" height="4.82"/>
    <g>
      <path class="cls-1" d="M49.49,74.79c-.64,0-1.16-.51-1.16-1.14v-6.35c0-.63.52-1.14,1.16-1.14s1.16.51,1.16,1.14v6.35c0,.63-.52,1.14-1.16,1.14Z"/>
      <path class="cls-1" d="M79.93,74.79c-.64,0-1.16-.51-1.16-1.14v-6.35c0-.63.52-1.14,1.16-1.14s1.16.51,1.16,1.14v6.35c0,.63-.52,1.14-1.16,1.14Z"/>
      <path class="cls-1" d="M83.7,68.44h-37.99c-1.07,0-1.93-.85-1.93-1.9v-9.27c0-1.05.87-1.9,1.93-1.9h23.24c.64,0,1.16.51,1.16,1.14s-.52,1.14-1.16,1.14h-22.86v8.51h37.22v-8.51h-8.95c-.64,0-1.16-.51-1.16-1.14s.52-1.14,1.16-1.14h9.33c1.07,0,1.93.85,1.93,1.9v9.27c0,1.05-.87,1.9-1.93,1.9Z"/>
      <path class="cls-1" d="M86.08,80.08h-42.73c-1.07,0-1.93-.85-1.93-1.9v-3.77c0-1.05.87-1.9,1.93-1.9h42.73c1.07,0,1.93.85,1.93,1.9v3.77c0,1.05-.87,1.9-1.93,1.9ZM43.73,77.79h41.96v-3.01h-41.96v3.01Z"/>
      <path class="cls-1" d="M82.9,86.42c-.64,0-1.16-.51-1.16-1.14v-5.21h-34.05v5.21c0,.63-.52,1.14-1.16,1.14s-1.16-.51-1.16-1.14v-6.35c0-.63.52-1.14,1.16-1.14h36.37c.64,0,1.16.51,1.16,1.14v6.35c0,.63-.52,1.14-1.16,1.14Z"/>
    </g>
  </g>
  <rect class="cls-3" x="31.29" y="42.78" width="2.25" height="41.36"/>
  <rect class="cls-3" x="57.82" y="20.33" width="2.25" height="35.03"/>
  <polygon class="cls-3" points="23.49 49.97 28.97 55.37 28.97 52.23 25.08 48.4 23.49 49.97"/>
  <polygon class="cls-3" points="39.73 44.68 35.85 48.51 35.85 51.64 41.33 46.25 39.73 44.68"/>
  <polygon class="cls-3" points="48.04 25.64 55.5 32.99 55.5 29.85 49.63 24.07 48.04 25.64"/>
  <polygon class="cls-3" points="67.44 30.15 62.39 35.17 62.39 38.31 69.03 31.72 67.44 30.15"/>
</svg>