<?xml version="1.0" encoding="UTF-8"?>
<svg id="Capa_1" data-name="Capa 1" xmlns="http://www.w3.org/2000/svg" viewBox="0 0 103.17 96.32">
  <defs>
    <style>
      .cls-1 {
        fill: #ff8434;
      }

      .cls-1, .cls-2, .cls-3, .cls-4 {
        stroke-width: 0px;
      }

      .cls-2 {
        fill: #18786c;
      }

      .cls-3 {
        fill: #58e1d7;
      }

      .cls-4 {
        fill: #fff;
      }
    </style>
  </defs>
  <rect class="cls-3" y="0" width="103.17" height="96.32" rx="10.32" ry="10.32"/>
  <path class="cls-4" d="M51.93,40.82h-.62c-3.59,0-6.57-2.63-7.15-6.07h-1.31c-4,0-7.25-3.27-7.25-7.28v-4.37c-.99-.16-2-.24-3.03-.24s-2.03.1-3.03.26v4.35c0,4.01-3.25,7.28-7.25,7.28h-1.31c-.58,3.44-3.56,6.07-7.15,6.07h-.62c-.04.51-.07,1.03-.07,1.55,0,5.39,2.25,10.6,6.18,14.28.01.01.02.02.04.03,5.83,5.44,14.55,6.74,21.69,3.25.01,0,.02-.01.04-.02,7.23-3.55,11.48-11.12,10.84-19.1Z"/>
  <g>
    <path class="cls-4" d="M88.51,38.4c-7.5,0-14.18-3.16-17.42-8.05-3.19,4.81-9.7,7.94-17.04,8.04.06.36.13.71.17,1.07.48,3.58.07,7.11-1.09,10.34,2.97,7.25,10.13,12.09,17.96,12.09,4.92,0,9.61-1.85,13.21-5.2.01-.01.02-.02.04-.03,5.01-4.69,7.16-11.62,5.76-18.31-.53.03-1.06.05-1.59.05Z"/>
    <path class="cls-2" d="M21.84,50.18c-.08.48.13.97.54,1.23,1.15.73,3.2,1.54,5.45,1.54,1.54,0,3.18-.39,4.71-1.43,1.53,1.05,3.17,1.43,4.71,1.43,2.26,0,4.3-.81,5.45-1.54.41-.26.63-.75.54-1.23s-.45-.87-.93-.97c-.93-.2-1.95-1.76-2.3-2.48-.02-.05-.05-.09-.08-.13-2.28-3.54-5.58-3.43-7.41-2.76-1.83-.67-5.13-.78-7.41,2.76-.03.04-.05.09-.07.13-.35.72-1.37,2.27-2.3,2.48-.48.1-.84.49-.93.97ZM27.2,47.85c1.93-2.92,4.51-1.77,4.81-1.62.02.01.04,0,.06.02.09.04.19.06.29.08.06,0,.11.02.17.02.09,0,.17-.01.25-.03.08-.02.15-.03.22-.06.03-.01.06-.01.09-.02.29-.14,2.88-1.31,4.81,1.62.17.34.74,1.42,1.64,2.34-1.64.51-4.08.75-6.21-1.1-.04-.04-.09-.05-.13-.08-.07-.05-.13-.09-.21-.12-.07-.03-.14-.04-.22-.06-.08-.02-.15-.03-.23-.03s-.15.01-.22.03c-.08.01-.15.03-.22.06-.07.03-.14.07-.21.12-.04.03-.09.04-.13.08-2.12,1.85-4.56,1.61-6.21,1.1.9-.92,1.47-2,1.64-2.34Z"/>
    <path class="cls-2" d="M58.96,46.69c.67,0,1.2-.54,1.2-1.21,0-.56.46-1.02,1.02-1.02s1.01.46,1.01,1.02c0,.67.54,1.21,1.2,1.21s1.2-.54,1.2-1.21c0-1.9-1.54-3.44-3.42-3.44s-3.42,1.54-3.42,3.44c0,.67.54,1.21,1.2,1.21Z"/>
    <path class="cls-2" d="M78.79,46.69c.67,0,1.2-.54,1.2-1.21,0-.56.45-1.02,1.01-1.02s1.02.46,1.02,1.02c0,.67.54,1.21,1.2,1.21s1.2-.54,1.2-1.21c0-1.9-1.54-3.44-3.42-3.44s-3.42,1.54-3.42,3.44c0,.67.54,1.21,1.2,1.21Z"/>
    <path class="cls-2" d="M71.09,50.38c1.25,0,2.44-.54,3.26-1.49.44-.5.38-1.27-.12-1.71-.5-.44-1.26-.39-1.7.12-.37.43-.88.66-1.45.66s-1.07-.24-1.44-.66c-.44-.5-1.2-.56-1.7-.12-.5.44-.55,1.2-.12,1.71.82.95,2.01,1.49,3.26,1.49Z"/>
    <path class="cls-2" d="M90.18,61.72v-1.43c0-1.67-1.05-3.09-2.51-3.66,4.64-5.44,6.39-12.84,4.53-19.89,0-.02-.01-.04-.02-.06-.92-3.45-2.69-6.65-5.13-9.28-.45-.49-1.22-.51-1.7-.06-.49.46-.51,1.22-.06,1.71,1.85,1.99,3.26,4.35,4.14,6.89-.31.01-.62.02-.93.02-7.43,0-14.14-3.55-16.31-8.63-.19-.44-.62-.73-1.11-.73h0c-.48,0-.92.29-1.11.73-2.17,5.08-8.88,8.63-16.31,8.63-.07,0-.14,0-.21,0-.1-.34-.22-.67-.34-1.01,2.97-7.25,10.13-12.1,17.97-12.1,3.57,0,7.06.98,10.09,2.84.57.35,1.31.17,1.65-.4.35-.57.17-1.31-.4-1.66-1.28-.78-2.63-1.43-4.03-1.93,0-.1.01-.2.01-.3,0-4.01-3.25-7.28-7.25-7.28s-7.25,3.27-7.25,7.28c0,.09,0,.17.01.26-1.86.65-3.63,1.53-5.28,2.68-2.88,2-5.2,4.64-6.83,7.71-1.63-3.07-3.95-5.71-6.83-7.71-3.66-2.55-7.96-3.9-12.43-3.9-1.51,0-3.01.16-4.48.46-4.85,1.01-9.26,3.7-12.42,7.57-2.57,3.14-4.18,6.96-4.73,10.96,0,.06-.04.12-.04.18,0,.01,0,.03,0,.04-.11.9-.19,1.81-.19,2.72,0,5.24,1.89,10.31,5.25,14.26-1.46.57-2.5,1.99-2.5,3.65v1.43c0,1.68.79,3.24,2.08,4.24-3.11,3.89-4.83,8.7-4.83,13.72,0,.67.54,1.21,1.2,1.21h16.03c.67,0,1.2-.54,1.2-1.21s-.54-1.21-1.2-1.21h-5.16v-3.65c0-.67-.54-1.21-1.2-1.21s-1.2.54-1.2,1.21v3.65h-7.23c.26-4.24,1.9-8.26,4.67-11.49.32.06.64.09.96.09,1.39,0,2.77-.55,3.78-1.57.41-.41.72-.88.97-1.38.26,1.49.91,2.9,1.91,4.08,1.61,1.89,3.95,2.97,6.43,2.97s4.65-1.01,6.25-2.77c1.38-1.52,2.16-3.5,2.21-5.53.51-.19,1.01-.4,1.5-.64h16.02c-2.03,1.56-3.79,3.46-5.18,5.65-2.02,3.18-3.17,6.82-3.38,10.58h-15.68c-.67,0-1.2.54-1.2,1.21s.54,1.21,1.2,1.21h58.11c.66,0,1.2-.54,1.2-1.21,0-5.03-1.72-9.85-4.84-13.74,1.26-.98,2.09-2.5,2.09-4.22ZM71.17,16.54c2.53,0,4.6,1.97,4.8,4.47-1.59-.37-3.23-.56-4.88-.56s-3.18.18-4.71.52c.23-2.47,2.28-4.42,4.8-4.42ZM87.77,61.72c0,1.62-1.31,2.93-2.92,2.93s-2.92-1.32-2.92-2.93v-.32c1.29-.74,2.51-1.61,3.64-2.62h.71c.83,0,1.5.68,1.5,1.51v1.43ZM51.84,52.72c1.47,2.77,3.52,5.18,6.03,7.1h-12.07c2.53-1.93,4.58-4.35,6.04-7.1ZM69.89,66.62c0,.79-.53,1.22-1.03,1.36-.5.14-1.17.05-1.58-.63l-2.36-3.93c1.61.47,3.27.76,4.96.85v2.35ZM72.29,64.25c1.69-.09,3.36-.36,4.96-.84l-2.21,3.69h0s-.14.24-.14.24c-.41.68-1.08.77-1.58.63-.5-.14-1.03-.57-1.03-1.36v-2.36ZM71.09,30.35c3.24,4.89,9.92,8.05,17.42,8.05.53,0,1.06-.02,1.59-.05,1.4,6.69-.75,13.62-5.76,18.31-.01.01-.02.02-.04.03-3.6,3.36-8.29,5.2-13.21,5.2-7.83,0-14.99-4.84-17.96-12.09,1.16-3.23,1.57-6.77,1.09-10.34-.05-.36-.11-.71-.17-1.07,7.35-.1,13.86-3.23,17.04-8.04ZM50.71,35.36c.38.99.67,2.01.89,3.05h-.29c-2.67,0-4.84-2.18-4.84-4.86,0-.67-.54-1.21-1.2-1.21h-2.42c-2.67,0-4.84-2.18-4.84-4.86v-3.81c5.71,1.69,10.5,5.97,12.7,11.69ZM27.14,23.65v3.83c0,2.68-2.17,4.86-4.84,4.86h-2.42c-.66,0-1.2.54-1.2,1.21,0,2.68-2.17,4.86-4.84,4.86h-.27c1.46-6.97,6.66-12.74,13.57-14.76ZM13.21,40.82h.62c3.59,0,6.57-2.63,7.15-6.07h1.31c4,0,7.25-3.27,7.25-7.28v-4.35c1-.16,2.01-.26,3.03-.26s2.03.09,3.03.24v4.37c0,4.01,3.25,7.28,7.25,7.28h1.31c.58,3.44,3.56,6.07,7.15,6.07h.62c.64,7.98-3.61,15.55-10.84,19.1-.01,0-.02.01-.04.02-7.14,3.49-15.85,2.18-21.69-3.25-.01-.01-.02-.02-.04-.03-3.93-3.68-6.18-8.88-6.18-14.28,0-.52.03-1.04.07-1.55ZM20.88,63.79c-.8.8-2,1.07-3.06.69-1.15-.42-1.93-1.53-1.93-2.76v-1.43c0-.83.67-1.51,1.5-1.51h.7c1.13,1.01,2.35,1.9,3.64,2.64v.29c0,.78-.3,1.52-.86,2.08ZM36.35,66.78c-1.16,1.28-2.75,1.98-4.47,1.98s-3.44-.77-4.6-2.13c-.82-.97-1.31-2.15-1.42-3.39,1.17.38,2.36.67,3.6.84,1.05.15,2.1.23,3.15.23,1.77,0,3.53-.22,5.24-.65-.19,1.15-.7,2.24-1.5,3.12ZM90.49,78.47h-7.23v-3.65c0-.67-.54-1.21-1.2-1.21s-1.2.54-1.2,1.21v3.65h-19.35v-3.65c0-.67-.54-1.21-1.2-1.21s-1.2.54-1.2,1.21v3.65h-7.39c.4-6.68,4.11-12.59,9.94-15.84l3.58,5.96c.71,1.18,1.93,1.86,3.24,1.86.34,0,.69-.05,1.04-.14.61-.17,1.15-.48,1.59-.89.44.41.97.72,1.59.89.35.1.7.14,1.04.14,1.31,0,2.53-.68,3.24-1.86l.11-.18s0,0,0,0l2.83-4.72c.78,1.98,2.7,3.38,4.95,3.38.33,0,.65-.04.97-.1,2.77,3.24,4.41,7.25,4.67,11.5Z"/>
    <path class="cls-2" d="M22.51,43.98c.67,0,1.2-.54,1.2-1.21v-1.94c0-.67-.54-1.21-1.2-1.21s-1.2.54-1.2,1.21v1.94c0,.67.54,1.21,1.2,1.21Z"/>
    <path class="cls-2" d="M42.64,43.98c.67,0,1.2-.54,1.2-1.21v-1.94c0-.67-.54-1.21-1.2-1.21s-1.2.54-1.2,1.21v1.94c0,.67.54,1.21,1.2,1.21Z"/>
    <path class="cls-2" d="M71.17,72.4c-.66,0-1.2.54-1.2,1.21v1.21c0,.67.54,1.21,1.2,1.21s1.2-.54,1.2-1.21v-1.21c0-.67-.54-1.21-1.2-1.21Z"/>
    <path class="cls-1" d="M74.9,67.34l.14-.24h0s2.21-3.69,2.21-3.69c-1.6.47-3.27.74-4.96.84v2.36c0,.79.53,1.22,1.03,1.36.5.14,1.17.05,1.58-.63Z"/>
    <path class="cls-1" d="M67.28,67.34l-.14-.24h0s-2.21-3.69-2.21-3.69c1.6.47,3.27.74,4.96.84v2.36c0,.79-.53,1.22-1.03,1.36-.5.14-1.17.05-1.58-.63Z"/>
  </g>
  <path class="cls-1" d="M36.35,66.78c-1.16,1.28-2.75,1.98-4.47,1.98s-3.44-.77-4.6-2.13c-.82-.97-1.31-2.15-1.42-3.39,1.17.38,2.36.67,3.6.84,1.05.15,2.1.23,3.15.23,1.77,0,3.53-.22,5.24-.65-.19,1.15-.7,2.24-1.5,3.12Z"/>
</svg>