<?xml version="1.0" encoding="UTF-8"?>
<svg id="Capa_1" data-name="Capa 1" xmlns="http://www.w3.org/2000/svg" xmlns:xlink="http://www.w3.org/1999/xlink" viewBox="0 0 326.77 263.85">
  <defs>
    <style>
      .cls-1 {
        fill: #25ccc7;
      }

      .cls-1, .cls-2, .cls-3, .cls-4, .cls-5, .cls-6, .cls-7, .cls-8, .cls-9, .cls-10 {
        stroke-width: 0px;
      }

      .cls-2 {
        fill: url(#Degradado_sin_nombre_19);
      }

      .cls-3 {
        fill: #02846b;
      }

      .cls-4 {
        fill: url(#linear-gradient);
      }

      .cls-5 {
        fill: #003f3f;
      }

      .cls-6 {
        fill: #00635e;
      }

      .cls-11 {
        filter: url(#drop-shadow-1);
      }

      .cls-7 {
        fill: #fefefd;
      }

      .cls-8 {
        fill: #ff8532;
      }

      .cls-9 {
        fill: #ed4a0a;
      }

      .cls-10 {
        fill: url(#linear-gradient-2);
      }
    </style>
    <filter id="drop-shadow-1" filterUnits="userSpaceOnUse">
      <feOffset dx="6" dy="6"/>
      <feGaussianBlur result="blur" stdDeviation="4"/>
      <feFlood flood-color="#a5a8ab" flood-opacity=".3"/>
      <feComposite in2="blur" operator="in"/>
      <feComposite in="SourceGraphic"/>
    </filter>
    <linearGradient id="linear-gradient" x1="621.7" y1="85.56" x2="639.81" y2="85.56" gradientTransform="translate(-566.42 276.04) rotate(-17.27)" gradientUnits="userSpaceOnUse">
      <stop offset="0" stop-color="#fffc6f"/>
      <stop offset=".02" stop-color="#f0f972"/>
      <stop offset=".11" stop-color="#c3f37c"/>
      <stop offset=".2" stop-color="#9cee85"/>
      <stop offset=".29" stop-color="#7be98d"/>
      <stop offset=".4" stop-color="#60e594"/>
      <stop offset=".51" stop-color="#4be298"/>
      <stop offset=".63" stop-color="#3ce09c"/>
      <stop offset=".77" stop-color="#33df9e"/>
      <stop offset="1" stop-color="#31df9f"/>
    </linearGradient>
    <linearGradient id="Degradado_sin_nombre_19" data-name="Degradado sin nombre 19" x1="61.29" y1="131.93" x2="326.77" y2="131.93" gradientUnits="userSpaceOnUse">
      <stop offset="0" stop-color="#e2fabe"/>
      <stop offset="1" stop-color="#fff"/>
    </linearGradient>
    <linearGradient id="linear-gradient-2" x1="579.13" y1="-2507.31" x2="587.13" y2="-2507.31" gradientTransform="translate(-2042.39 1692.13) rotate(39.56)" gradientUnits="userSpaceOnUse">
      <stop offset="0" stop-color="#2ed474"/>
      <stop offset=".23" stop-color="#2ad17a"/>
      <stop offset=".56" stop-color="#20ca8c"/>
      <stop offset=".94" stop-color="#10bfaa"/>
      <stop offset="1" stop-color="#0dbdb0"/>
    </linearGradient>
  </defs>
  <g>
    <g class="cls-11">
      <path class="cls-4" d="M69.95,167.8c1.52,4.79-1.13,9.85-5.91,11.31s-9.9-1.24-11.41-6.03,1.13-9.85,5.91-11.31c4.79-1.46,9.9,1.24,11.41,6.03Z"/>
      <path class="cls-2" d="M279.44,16.02c-28.34-25.26-63.06-16.61-94.08-1.65-12.8,6.17-25.25,14.13-38.95,18.31-20.38,6.22-44.07,2.29-62.49,14.48-16.98,11.24-25.77,33.45-21.6,52.99,3.24,15.19,13.14,27.95,17.19,42.87,4.5,16.6.77,33.73,2.8,50.57,3.26,27.06,22.07,45.58,45.92,57.87,119.82,61.72,279.28-121.29,151.22-235.44Z"/>
    </g>
    <path class="cls-10" d="M1.18,127.49c1.57-1.54,4.12-1.55,5.7,0,1.58,1.54,1.58,4.04,0,5.59-1.57,1.54-4.12,1.55-5.7,0-1.58-1.54-1.58-4.04,0-5.59Z"/>
    <g>
      <path class="cls-9" d="M181.4,246.12c-.17,2.61-2.47,4.58-5.13,4.42-2.66-.17-4.68-2.42-4.51-5.02s2.47-4.58,5.13-4.42c2.66.17,4.68,2.42,4.51,5.02Z"/>
      <path class="cls-9" d="M188.01,254.15c-.08,1.16-1.1,2.04-2.28,1.96-1.18-.07-2.08-1.07-2-2.23.08-1.16,1.1-2.04,2.28-1.96s2.08,1.07,2,2.23Z"/>
    </g>
  </g>
  <g>
    <path class="cls-5" d="M206.77,92.85c3.52.48,4.2,2.94,3.83,5.85-1.12,8.91-2.49,17.78-6.73,25.85-1.67,3.19-1.17,4.32,2.64,4.38,10.59.17,10.45.26,13.2-9.79,4.34-15.87,9.4-31.51,15.82-46.68,1.09-2.57.67-3.68-1.63-5.12-3.96-2.48-5.89-6.29-5.22-11.07.72-5.1,1.76-10.18,3.89-14.87,2.61-5.77,8.59-7.95,15.74-6.07,8.35,2.19,16.67,4.44,25,6.7,8.51,2.32,12.01,8.69,9.51,17.15-.61,2.07-1.31,4.12-1.71,6.24-1.34,7.07-5.02,11.51-12.67,11.51-2.37,0-2.52,1.39-2.74,3.22-.56,4.6-1.36,9.17-1.98,13.76-.28,2.02-1.31,3.35-3.13,4.15-2.14-.46-2.93-1.73-2.82-3.95.35-7.05,2.95-13.73,3.14-20.82.07-2.61,2.22-2.8,4.48-2.5,7.15.93,8.54-.08,10.45-7.12.52-1.92,1.16-3.81,1.66-5.73,1.58-6.11,0-9.36-6.21-10.62-8.57-1.75-16.74-4.83-25.24-6.78-4.7-1.08-7.77.47-9.18,5.06-.92,3.01-1.47,6.14-2.45,9.12-1.53,4.68.55,7.82,4.67,8.88,5.16,1.34,4.67,3.67,2.97,7.56-7.63,17.49-13.31,35.66-18.36,54.04-.78,2.85-.54,3.81,2.65,3.72,6.65-.19,13.32-.18,19.97,0,2.79.07,4.24-.67,4.81-3.61,1-5.21,2.41-10.33,3.59-15.51.53-2.33.92-4.68,3.98-4.93,2.44,1.32,2.25,3.4,1.7,5.64-1.23,4.99-2.25,10.04-3.71,14.97-.84,2.84-.03,3.47,2.67,3.42,6.49-.13,12.99.09,19.48-.09,3.71-.1,5.09,1.37,4.91,5.02-1.36,27.3-12.08,50.05-32.83,67.97-1.63,1.41-3.25,2.9-5.09,3.99-5,2.95-8.64,5.92-8.48,12.97.15,6.63-6.51,11.19-13.56,11.2-21.32.04-42.63.05-63.95,0-7.66-.02-14.09-6.13-13.98-13.8.06-4.07-1.53-6.06-4.79-8.29-21.29-14.52-34.81-34.32-39.35-59.9-.81-4.56-1.37-9.17-1.83-13.78-.37-3.63,1.11-5.68,5.18-5.37,2.81.22,5.66,0,8.49.06,2.62.06,3.95-.62,2.45-3.47-4.44-8.38-6.33-17.51-6.94-26.8-.53-7.99.76-15.9,4.5-23.19,2.53-4.91,6.94-5.98,11.86-5.27,4.79.69,9.24,2.64,13.69,4.49,2.49,1.03,2.98,2.89,2.6,5.26-1.69,1.21-3.28.87-5.08.03-2.52-1.19-5.14-2.25-7.82-2.97-9.17-2.45-11.55-.75-13.02,8.99-2.97,14.39.31,27.67,7.18,40.3.83,1.52,2.02,2.62,3.94,2.62,5.5-.02,10.99,0,16.49-.02,1.55,0,2.58-.41,2.01-2.38-1.45-5.05-4.72-7.55-10.08-7.56-1.67,0-3.33-.02-5,0-2.02.01-4-.68-4.09-2.77-.12-2.48,2.02-3.01,4.19-3.18,6.95-.54,6.96-.57,3.36-6.87-.41-.72-1-1.35-1.33-2.11-2.34-5.45-7.05-9.76-7.66-16.03,8.07-3.74,5.99,6.02,10.13,7.6,1.43-.75,1.5-2.46,2.44-3.56.99-1.16,1.93-2.32,3.76-1.33,1.67.9,1.75,2.18,1.36,3.79-.35,1.43-.5,2.91-.74,4.37-3.32,1.66-3.21,4.12-1.62,6.92,3.59,6.31,7.41,12.51,10.7,18.97,1.79,3.53,4.14,4.82,7.84,4.12,2.31.03,4.63-.04,6.94.11,2.82.18,3.46-1.34,3.11-3.69-1.58-10.61-5.43-20.17-11.82-28.94-3.17-4.34-8.83-6.56-10.13-12.33,4.56-2.86,7.31.45,9.62,3.33,2.66,3.31,4,2.76,6.83-.05,8.58-8.55,18.6-14.78,30.82-16.93,7.43-1.31,14.74,4.55,14.63,11.96-.03,1.97-1.42,2.87-2.9,3.69-1.96-.94-2.65-2.69-3.4-4.61-2.13-5.51-4.24-6.67-9.91-5.12-10.27,2.82-18.79,8.68-26.41,15.95-2.24,2.14-2.67,4.44-.24,6.79,4.94,9.04,8.35,18.55,8.95,28.93,6.43,2.22,13.04.57,19.56.84,1.3.05,1.71-1.43,2.24-2.43,3.57-6.76,5.99-13.83,7.5-21.41.79-3.98-1.38-8.82,2.73-12.05ZM105.95,134.93c.07,1.32.09,2.65.23,3.96q.77,7.05,7.66,7.05c50.96,0,101.92,0,152.88,0q10.72,0,10.92-10.92c-1.14-1.9-2.99-.95-4.48-.95-54.23-.06-108.45-.06-162.68,0-1.5,0-3.33-.93-4.55.86ZM187.87,187.82c-1.62,1.74-3.75,1.06-5.67,1.07-15.98.05-31.97,0-47.95.08-1.69,0-4.26-1.09-4.92.96-.57,1.75,1.79,3.01,3.14,4.11,4.88,3.97,9.51,8.34,15.15,11.24,3.1,1.59,4.18,3.7,4.15,7.13-.09,9.76,2.82,12.47,12.76,12.47,18.65,0,37.29,0,55.94,0,9.02,0,11.41-2.13,11.18-11.05-.11-4.2,1.39-6.84,4.93-8.92,5.45-3.19,10.49-7,14.99-11.45,1.09-1.07,3.28-1.98,2.45-3.82-.67-1.48-2.72-.68-4.14-.69-15.98-.05-31.97-.03-47.95-.03-2.16,0-4.34.19-6.3-1.04-.26-3.93,2.3-4.1,5.23-4.09,18.48.05,36.96.02,55.44.03,2.17,0,4.09.08,5.62-2.21,5.19-7.8,9.36-16.02,12.15-25,1.33-4.26-.21-4.82-3.87-4.79-15.32.11-30.63.05-45.95.05-36.96,0-73.92.05-110.89-.07-4.21-.01-5.34.99-3.86,5.15,2.79,7.87,6.06,15.42,10.74,22.41,2.21,3.3,4.64,4.58,8.59,4.54,17.98-.18,35.96-.05,53.94-.11,2.92-.01,5.5,0,5.08,4.03Z"/>
    <path class="cls-8" d="M258.66,104.88c-3.06.25-3.45,2.6-3.98,4.93-1.18,5.17-2.59,10.3-3.59,15.51-.56,2.94-2.02,3.68-4.81,3.61-6.65-.17-13.32-.19-19.97,0-3.19.09-3.43-.87-2.65-3.72,5.05-18.38,10.73-36.55,18.36-54.04,1.7-3.89,2.19-6.23-2.97-7.56-4.12-1.07-6.21-4.2-4.67-8.88.98-2.99,1.53-6.11,2.45-9.12,1.41-4.59,4.48-6.14,9.18-5.06,8.49,1.95,16.67,5.03,25.24,6.78,6.22,1.27,7.79,4.51,6.21,10.62-.5,1.93-1.14,3.81-1.66,5.73-1.91,7.04-3.3,8.04-10.45,7.12-2.25-.29-4.41-.1-4.48,2.5-.19,7.09-2.8,13.77-3.14,20.82-.11,2.22.67,3.49,2.82,3.95-.63,2.27-1.26,4.55-1.89,6.82Z"/>
    <path class="cls-6" d="M165.78,98.97c-2.43-2.35-2-4.65.24-6.79,7.62-7.27,16.14-13.13,26.41-15.95,5.67-1.55,7.78-.39,9.91,5.12.74,1.92,1.44,3.68,3.4,4.61.57,2.26,1.23,4.51,1.02,6.89-4.11,3.22-1.94,8.07-2.73,12.04-1.5,7.58-3.93,14.65-7.5,21.41-.53,1-.94,2.49-2.24,2.43-6.52-.27-13.13,1.38-19.56-.84,1.64-.51,1.79-2.34,2.9-3.29,11.59-9.97,13.83-24.12,16.92-37.87.65-2.87-.04-3.89-3.37-2.68-6.51,2.35-12.19,5.82-17.47,10.24-2.32,1.94-4.35,4.73-7.93,4.68Z"/>
    <path class="cls-6" d="M141.72,98.79c.24-1.46.39-2.94.74-4.37.39-1.62.31-2.89-1.36-3.79-1.83-.99-2.77.17-3.76,1.33-.94,1.1-1.02,2.82-2.44,3.56-4.14-1.58-2.06-11.34-10.13-7.6-2.76-1.75-5.78-2.34-9-1.98,1.47-9.74,3.85-11.44,13.02-8.99,2.68.72,5.3,1.78,7.82,2.97,1.8.85,3.39,1.18,5.08-.03,1.3,1.83,4.19,1.68,5.06,4.06,1.3,5.77,6.97,7.99,10.13,12.33,6.4,8.77,10.24,18.33,11.82,28.94.35,2.35-.29,3.87-3.11,3.69-2.31-.15-4.63-.08-6.94-.11-3.36-9.65-7.33-18.96-14.8-26.29-1.06-1.04-2.18-2.05-2.12-3.73Z"/>
    <path class="cls-3" d="M187.87,187.82c.43-4.02-2.15-4.04-5.08-4.03-17.98.06-35.96-.07-53.94.11-3.95.04-6.38-1.24-8.59-4.54-4.68-6.99-7.95-14.54-10.74-22.41-1.48-4.17-.35-5.17,3.86-5.15,36.96.12,73.92.07,110.89.07,15.32,0,30.64.06,45.95-.05,3.66-.03,5.19.54,3.87,4.79-2.8,8.99-6.97,17.2-12.15,25-1.52,2.29-3.45,2.21-5.62,2.21-18.48,0-36.96.02-55.44-.03-2.93,0-5.49.16-5.23,4.09-2.59-.02-5.18-.04-7.77-.06ZM211.73,167.61c.07,5.14,4.76,10.01,9.76,10.14,4.94.12,10.21-5.31,10.12-10.42-.09-5.2-4.74-9.51-10.18-9.45-5.7.06-9.77,4.14-9.7,9.72ZM162.21,157.89c-5.1,0-10.28,4.83-10.25,9.57.03,5,5.34,10.34,10.27,10.32,5.14-.02,9.55-4.67,9.53-10.06-.02-5.71-4.02-9.82-9.56-9.83ZM141.83,167.7c.05-5.66-3.98-9.8-9.53-9.81-5.39,0-9.5,4.01-9.59,9.38-.09,5.55,4.61,10.37,10.02,10.28,5.29-.09,9.06-4.16,9.1-9.85ZM260.76,167.98c.07-5.79-3.82-9.99-9.34-10.09-5.6-.1-9.69,3.95-9.76,9.67-.07,5.3,4.51,10.15,9.56,10.14,4.58,0,9.48-5,9.54-9.72ZM191.86,177c5.49-.03,9.77-3.98,9.82-9.06.06-5.48-4.67-10.17-10.13-10.05-4.97.11-9.9,5.24-9.73,10.14.18,5.07,4.57,9,10.03,8.97Z"/>
    <path class="cls-6" d="M187.87,187.82c2.59.02,5.18.04,7.77.06,1.95,1.23,4.14,1.04,6.3,1.04,15.98,0,31.97-.02,47.95.03,1.42,0,3.47-.79,4.14.69.83,1.84-1.37,2.75-2.45,3.82-4.51,4.44-9.55,8.25-14.99,11.45-3.54,2.08-5.04,4.72-4.93,8.92.23,8.92-2.16,11.06-11.18,11.05-18.65-.01-37.29,0-55.94,0-9.95,0-12.85-2.71-12.76-12.47.03-3.43-1.05-5.53-4.15-7.13-5.64-2.9-10.27-7.27-15.15-11.24-1.34-1.09-3.7-2.36-3.14-4.11.66-2.05,3.23-.95,4.92-.96,15.98-.08,31.97-.03,47.95-.08,1.92,0,4.04.68,5.67-1.07Z"/>
    <path class="cls-7" d="M277.65,135.02q-.21,10.92-10.92,10.92c-50.96,0-101.92,0-152.88,0q-6.88,0-7.66-7.05c-.14-1.31-.16-2.64-.23-3.96,57.23.03,114.47.06,171.7.09Z"/>
    <path class="cls-3" d="M115.76,85.95c3.23-.36,6.24.23,9,1.98.61,6.27,5.31,10.59,7.66,16.03.32.75.91,1.39,1.33,2.11,3.6,6.29,3.6,6.33-3.36,6.87-2.18.17-4.31.7-4.19,3.18.1,2.09,2.07,2.79,4.09,2.77,1.67-.01,3.33,0,5,0,5.37,0,8.63,2.51,10.08,7.56.57,1.98-.46,2.38-2.01,2.38-5.5.02-10.99,0-16.49.02-1.92,0-3.11-1.1-3.94-2.62-6.87-12.63-10.14-25.91-7.18-40.3Z"/>
    <path class="cls-3" d="M165.78,98.97c3.58.06,5.61-2.74,7.93-4.68,5.28-4.42,10.97-7.89,17.47-10.24,3.34-1.21,4.02-.19,3.37,2.68-3.09,13.75-5.34,27.9-16.92,37.87-1.1.95-1.26,2.78-2.9,3.29-.6-10.38-4.01-19.89-8.95-28.93Z"/>
    <path class="cls-3" d="M141.72,98.79c-.06,1.68,1.06,2.69,2.12,3.73,7.48,7.33,11.45,16.64,14.8,26.29-3.71.69-6.05-.6-7.84-4.13-3.29-6.47-7.11-12.66-10.7-18.97-1.59-2.8-1.7-5.26,1.62-6.92Z"/>
    <path class="cls-8" d="M277.65,135.02c-57.23-.03-114.47-.06-171.7-.09,1.22-1.79,3.05-.86,4.55-.86,54.23-.06,108.45-.06,162.68,0,1.48,0,3.33-.96,4.48.95Z"/>
    <path class="cls-5" d="M211.73,167.61c-.07-5.58,4-9.66,9.7-9.72,5.45-.06,10.09,4.25,10.18,9.45.09,5.11-5.19,10.54-10.12,10.42-5-.12-9.69-5-9.76-10.14ZM225.61,167.5c-.51-2.01-1.49-3.73-3.87-3.77-2.54-.05-4.06,1.42-4.16,3.94-.09,2.41,1.59,3.78,3.7,3.9,2.47.14,3.87-1.54,4.33-4.07Z"/>
    <path class="cls-5" d="M162.21,157.89c5.54,0,9.53,4.12,9.56,9.83.02,5.39-4.39,10.05-9.53,10.06-4.93.02-10.25-5.32-10.27-10.32-.03-4.74,5.15-9.58,10.25-9.57ZM166.08,167.47c-.13-2.12-1.42-3.69-3.96-3.76-2.32-.06-3.83,1.42-3.92,3.66-.1,2.48,1.45,4.23,3.94,4.2,2.08-.02,3.78-1.23,3.94-4.1Z"/>
    <path class="cls-5" d="M141.83,167.7c-.05,5.68-3.81,9.76-9.1,9.85-5.41.09-10.11-4.72-10.02-10.28.09-5.37,4.2-9.39,9.59-9.38,5.55,0,9.58,4.15,9.53,9.81ZM136.56,167.66c-.3-2.24-1.51-3.69-3.82-3.86-2.61-.19-4.14,1.13-4.15,3.8,0,2.33,1.35,3.93,3.58,4.05,2.48.13,3.88-1.55,4.38-3.99Z"/>
    <path class="cls-5" d="M260.76,167.98c-.06,4.72-4.96,9.71-9.54,9.72-5.05,0-9.63-4.85-9.56-10.14.07-5.72,4.16-9.77,9.76-9.67,5.52.1,9.41,4.3,9.34,10.09ZM255.38,167.77c-.55-2.41-1.66-4.13-4.31-4.02-2.27.1-3.93,1.4-3.99,3.61-.07,2.4,1.62,4.14,3.97,4.28,2.44.14,3.75-1.67,4.33-3.87Z"/>
    <path class="cls-5" d="M191.86,177c-5.46.03-9.85-3.9-10.03-8.97-.17-4.9,4.75-10.03,9.73-10.14,5.46-.12,10.18,4.57,10.13,10.05-.05,5.08-4.34,9.03-9.82,9.06ZM195.8,167.54c-.2-2.47-1.49-3.77-3.83-3.75-2.51.02-4.12,1.44-4.13,3.93,0,2.48,1.59,4.06,4.08,3.97,2.48-.1,3.73-1.79,3.88-4.15Z"/>
    <path class="cls-7" d="M225.61,167.5c-.46,2.52-1.85,4.21-4.33,4.07-2.11-.12-3.8-1.49-3.7-3.9.1-2.52,1.62-3.99,4.16-3.94,2.39.04,3.36,1.76,3.87,3.77Z"/>
    <path class="cls-7" d="M166.08,167.47c-.16,2.87-1.86,4.08-3.94,4.1-2.49.03-4.04-1.73-3.94-4.2.09-2.24,1.6-3.72,3.92-3.66,2.54.07,3.83,1.64,3.96,3.76Z"/>
    <path class="cls-1" d="M136.56,167.66c-.5,2.45-1.9,4.12-4.38,3.99-2.23-.12-3.59-1.72-3.58-4.05,0-2.68,1.53-3.99,4.15-3.8,2.3.17,3.52,1.62,3.82,3.86Z"/>
    <path class="cls-1" d="M255.38,167.77c-.59,2.2-1.9,4.01-4.33,3.87-2.35-.14-4.04-1.88-3.97-4.28.07-2.21,1.73-3.51,3.99-3.61,2.65-.11,3.76,1.61,4.31,4.02Z"/>
    <path class="cls-1" d="M195.8,167.54c-.15,2.36-1.4,4.05-3.88,4.15-2.49.1-4.09-1.49-4.08-3.97,0-2.49,1.62-3.91,4.13-3.93,2.34-.02,3.62,1.28,3.83,3.75Z"/>
  </g>
</svg>