<?xml version="1.0" encoding="UTF-8"?>
<svg id="Capa_1" data-name="Capa 1" xmlns="http://www.w3.org/2000/svg" viewBox="0 0 103.17 96.32">
  <defs>
    <style>
      .cls-1 {
        fill: #ff8434;
      }

      .cls-1, .cls-2, .cls-3, .cls-4 {
        stroke-width: 0px;
      }

      .cls-2 {
        fill: #18786c;
      }

      .cls-3 {
        fill: #58e1d7;
      }

      .cls-4 {
        fill: #fff;
      }
    </style>
  </defs>
  <rect class="cls-3" width="103.17" height="96.32" rx="10.32" ry="10.32"/>
  <path class="cls-4" d="M48.42,73.19h0c.5,0,.98-.19,1.35-.53l19.16-17.39v-13.37c0-2.16,1.62-3.91,3.62-3.91,1.57,0,2.9,1.09,3.4,2.61h2.64v-2.1c0-9.63-7.25-17.46-16.16-17.46-3.39,0-6.63,1.12-9.39,3.25l-3.44,2.66c-.52.4-1.13.61-1.76.61-1.61,0-2.91-1.36-3.02-3.07-2.76-2.22-6.14-3.45-9.59-3.45h-.9c-8.87,0-16.08,7.79-16.08,17.37,0,5.15,2.09,9.99,5.74,13.3l23.08,20.95c.38.34.86.53,1.35.53Z"/>
  <g>
    <path class="cls-2" d="M27.14,51.14l1.55-2,2.39,2.17-1.55,2-2.39-2.17Z"/>
    <path class="cls-2" d="M20.66,38.41c0,3.93,1.41,7.62,3.97,10.41l1.71-1.84c-2.11-2.29-3.27-5.33-3.27-8.57,0-6.7,5.05-12.16,11.25-12.16h.9v-2.61h-.9c-7.54,0-13.67,6.62-13.67,14.76h0Z"/>
    <path class="cls-2" d="M49.63,58.85c2,0,3.62-1.75,3.62-3.91v-3.91h3.62c2,0,3.62-1.75,3.62-3.91v-2.61c0-2.16-1.62-3.91-3.62-3.91h-3.62v-3.91c0-2.16-1.62-3.91-3.62-3.91h-2.41c-2,0-3.62,1.75-3.62,3.91v3.91h-3.62c-2,0-3.62,1.75-3.62,3.91v2.61c0,2.16,1.62,3.91,3.62,3.91h3.62v3.91c0,2.16,1.62,3.91,3.62,3.91h2.41ZM46.01,54.94v-6.52h-6.03c-.67,0-1.21-.58-1.21-1.3v-2.61c0-.72.54-1.3,1.21-1.3h6.03v-6.52c0-.72.54-1.3,1.21-1.3h2.41c.67,0,1.21.58,1.21,1.3v6.52h6.03c.67,0,1.21.58,1.21,1.3v2.61c0,.72-.54,1.3-1.21,1.3h-6.03v6.52c0,.72-.54,1.3-1.21,1.3h-2.41c-.67,0-1.21-.58-1.21-1.3Z"/>
    <path class="cls-2" d="M54.46,61.46h2.41v2.61h-2.41v-2.61Z"/>
    <path class="cls-2" d="M49.63,61.46h2.41v2.61h-2.41v-2.61Z"/>
    <path class="cls-2" d="M39.97,61.46h2.41v2.61h-2.41v-2.61Z"/>
    <path class="cls-2" d="M44.8,61.46h2.41v2.61h-2.41v-2.61Z"/>
    <path class="cls-2" d="M90.66,52.33c0-4.06-1.92-7.64-4.83-9.75v-3.74c0-14.13-10.64-25.62-23.72-25.62-4.45,0-8.79,1.35-12.57,3.89l-3.32,2.24c-.69.47-1.16,1.2-1.34,2.04-2.9-1.91-6.25-2.96-9.66-2.96h-.9c-10.2,0-18.49,8.96-18.49,19.98,0,5.92,2.41,11.49,6.6,15.3l21.82,19.8c-2.47.82-4.28,3.28-4.28,6.21,0,3.59,2.71,6.52,6.03,6.52h5.49c10.64,0,20.86-4.19,28.83-11.8.38-.06.75-.16,1.1-.35,4.17-2.25,6.76-6.75,6.82-11.77,1.51-2.02,2.42-4.58,2.42-7.38v-2.61ZM79.8,64.06h-3.62v-20.86h3.62c1.86,0,3.58.66,4.98,1.77-2.33,1.91-3.78,5.11-3.78,8.66s1.45,6.75,3.77,8.66c-1.4,1.11-3.12,1.77-4.98,1.77ZM47.21,22.13c0-.23.11-.45.29-.57l3.32-2.24c3.39-2.29,7.29-3.5,11.29-3.5,11.75,0,21.3,10.32,21.3,23.01v2.44c-.77-.3-1.58-.51-2.41-.61v-2.18c0-11.06-8.33-20.06-18.57-20.06-3.89,0-7.63,1.29-10.79,3.74l-3.44,2.66c-.38.3-.98-.04-.98-.55v-2.15ZM18.25,38.41c0-9.58,7.21-17.37,16.08-17.37h.9c3.45,0,6.83,1.23,9.59,3.45.1,1.71,1.41,3.07,3.02,3.07.64,0,1.25-.21,1.76-.61l3.44-2.66c2.76-2.13,6.01-3.25,9.39-3.25,8.91,0,16.16,7.83,16.16,17.46v2.1h-2.64c-.5-1.51-1.83-2.61-3.4-2.61-2,0-3.62,1.75-3.62,3.91v13.37l-19.16,17.39c-.38.34-.86.53-1.35.53h0c-.49,0-.97-.19-1.35-.53l-23.08-20.95c-3.65-3.31-5.74-8.16-5.74-13.3h0ZM73.77,41.9v23.47c0,.72-.54,1.3-1.21,1.3s-1.21-.58-1.21-1.3v-23.47c0-.72.54-1.3,1.21-1.3s1.21.58,1.21,1.3h0ZM54.46,83.51c-.98.08-1.97.11-2.96.11h-5.49c-2,0-3.62-1.75-3.62-3.91s1.62-3.91,3.62-3.91h4.83c2,0,3.62,1.75,3.62,3.91v3.8ZM52.59,73.51l16.35-14.83v6.69c0,2.16,1.62,3.91,3.62,3.91,1.57,0,2.9-1.09,3.4-2.61h2.85c-.2.15-.41.29-.63.41-.86.47-1.51,1.27-1.81,2.26-.31.99-.24,2.05.2,2.99.23.49.54.92.92,1.25-5.94,5.24-13.06,8.58-20.61,9.66v-3.53c0-2.93-1.81-5.38-4.28-6.2h0ZM80.34,71.75c-.59.31-1.33.04-1.62-.58-.14-.31-.17-.66-.07-1,.1-.34.31-.6.61-.75,1.28-.69,2.31-1.76,3.04-3.07,1.14-.29,2.22-.78,3.19-1.43-.72,2.93-2.55,5.43-5.15,6.83h0ZM88.25,54.94c0,2.07-.65,3.98-1.73,5.51-1.88-1.37-3.1-3.98-3.1-6.82s1.22-5.44,3.1-6.82c1.08,1.53,1.73,3.44,1.73,5.51v2.61Z"/>
  </g>
  <path class="cls-1" d="M49.63,56.24c.67,0,1.21-.58,1.21-1.3v-6.52h6.03c.67,0,1.21-.58,1.21-1.3v-2.61c0-.72-.54-1.3-1.21-1.3h-6.03v-6.52c0-.72-.54-1.3-1.21-1.3h-2.41c-.67,0-1.21.58-1.21,1.3v6.52h-6.03c-.67,0-1.21.58-1.21,1.3v2.61c0,.72.54,1.3,1.21,1.3h6.03v6.52c0,.72.54,1.3,1.21,1.3h2.41Z"/>
</svg>