<?xml version="1.0" encoding="UTF-8"?>
<svg id="Capa_1" data-name="Capa 1" xmlns="http://www.w3.org/2000/svg" viewBox="0 0 103.17 96.32">
  <defs>
    <style>
      .cls-1 {
        fill: #18786c;
      }

      .cls-1, .cls-2, .cls-3, .cls-4 {
        stroke-width: 0px;
      }

      .cls-2 {
        fill: #58e1d7;
      }

      .cls-3 {
        fill: #ed4a0a;
      }

      .cls-4 {
        fill: #fff;
      }
    </style>
  </defs>
  <rect class="cls-2" width="103.17" height="96.32" rx="10.32" ry="10.32"/>
  <path class="cls-3" d="M52.8,74.08c-9.07-6-13.21-10.13-16.26-16.14-1.26-2.26-1.95-4.81-2.02-7.41,0-1.43.22-2.85.64-4.21.5-1.69,1.55-3.16,2.98-4.17,1.51-1.07,3.32-1.64,5.16-1.63,3.08-.04,5.94,1.6,7.51,4.3l.93,2.4c.23.6.9.89,1.48.66.29-.12.53-.36.64-.66l.93-2.4c.72-1.3,1.78-2.38,3.06-3.11,3.02-1.73,6.74-1.56,9.6.44,1.43,1.01,2.48,2.48,2.98,4.17,1.17,4.03.77,7.39-1.38,11.62-3.05,6.02-7.19,10.14-16.26,16.15Z"/>
  <path class="cls-4" d="M21.03,44.69l-2.07-2.81L52.81,14.06l33.84,27.83-2.06,2.81-31.07-24.89c-.41-.33-1-.33-1.41,0l-26.28,21.05-4.79,3.84Z"/>
  <g id="_29-home" data-name=" 29-home">
    <g>
      <path class="cls-1" d="M71.1,59.01c2.42-4.76,2.88-8.75,1.54-13.36-.65-2.2-2.01-4.1-3.86-5.41-3.58-2.52-8.26-2.73-12.05-.56-1.64.94-3,2.32-3.93,4-1.96-3.45-5.6-5.55-9.51-5.49-2.32-.01-4.58.71-6.48,2.06-1.84,1.31-3.2,3.21-3.85,5.4-.48,1.58-.73,3.23-.73,4.88.06,2.97.85,5.89,2.28,8.48,3.33,6.56,7.79,10.96,17.67,17.44.38.25.86.25,1.24,0,9.88-6.48,14.34-10.88,17.67-17.44ZM52.81,74.08c-9.07-6-13.21-10.13-16.26-16.14-1.26-2.26-1.95-4.81-2.02-7.41,0-1.43.22-2.85.64-4.21.5-1.69,1.55-3.16,2.98-4.17,1.51-1.07,3.32-1.64,5.16-1.63,3.08-.04,5.94,1.6,7.51,4.3l.93,2.4c.23.6.9.89,1.48.66.29-.12.53-.36.64-.66l.93-2.4c.72-1.3,1.78-2.38,3.06-3.11,3.02-1.73,6.74-1.56,9.6.44,1.43,1.01,2.48,2.48,2.98,4.17,1.17,4.03.77,7.39-1.38,11.62-3.05,6.02-7.19,10.14-16.26,16.15Z"/>
      <path class="cls-1" d="M56.67,65.63c-1.27,1.02-2.74,2.1-4.5,3.29-.53.35-.68,1.07-.34,1.61s1.05.7,1.58.35c.01,0,.02-.01.03-.02,1.81-1.23,3.32-2.34,4.64-3.39.5-.4.58-1.13.19-1.64-.39-.51-1.11-.59-1.6-.2h0Z"/>
      <path class="cls-1" d="M66.83,46.18c-.6.18-.95.83-.77,1.44.83,2.87.56,5.01-1.05,8.16-1.34,2.69-3.14,5.12-5.3,7.18-.46.44-.48,1.18-.04,1.65.43.47,1.16.49,1.62.04,2.35-2.24,4.3-4.88,5.76-7.8,1.87-3.67,2.21-6.44,1.21-9.89-.18-.62-.82-.97-1.42-.78Z"/>
      <path class="cls-1" d="M52.81,37.02c2.52,0,4.57-2.09,4.57-4.66s-2.05-4.66-4.57-4.66-4.57,2.09-4.57,4.66,2.05,4.66,4.57,4.66ZM52.81,30.03c1.26,0,2.29,1.04,2.29,2.33s-1.02,2.33-2.29,2.33-2.29-1.04-2.29-2.33,1.02-2.33,2.29-2.33Z"/>
      <path class="cls-1" d="M88.37,80c-.64-.67-1.51-1.05-2.43-1.04h-5.71v-34.8l3.86,3.1c.2.16.45.25.71.25.05,0,.1,0,.15-.01.3-.04.58-.2.77-.46l3.43-4.66c.37-.5.28-1.21-.2-1.61l-11-9.05V13.73c0-.64-.51-1.16-1.14-1.16h-10.28c-.63,0-1.14.52-1.14,1.16v7.67l-11.85-9.74c-.42-.34-1.02-.34-1.44,0l-35.42,29.12c-.48.39-.57,1.1-.2,1.61l3.43,4.66c.18.25.46.41.77.46.3.04.61-.04.85-.23l3.86-3.1v34.8h-5.71c-1.89,0-3.43,1.56-3.43,3.49h0c0,.92.35,1.81,1,2.45.64.67,1.51,1.05,2.43,1.04h66.27c1.89,0,3.43-1.56,3.43-3.49,0-.92-.35-1.81-1-2.45ZM75.66,14.89v2.33h-8v-2.33h8ZM67.66,19.55h8v10.3l-8-6.57v-3.73ZM21.03,44.69l-2.07-2.81L52.81,14.06l33.84,27.83-2.06,2.81-31.07-24.89c-.41-.33-1-.33-1.41,0l-26.28,21.05-4.79,3.84ZM27.67,76.63h16c.63,0,1.14-.52,1.14-1.16s-.51-1.16-1.14-1.16h-16v-31.97l25.14-20.14,25.14,20.14v31.97h-16c-.63,0-1.14.52-1.14,1.16s.51,1.16,1.14,1.16h16v2.33H27.67v-2.33ZM85.94,83.62H19.67c-.31,0-.6-.13-.81-.36-.21-.21-.33-.5-.33-.81,0-.64.51-1.16,1.14-1.16h66.27c.31,0,.6.13.81.36.21.21.33.5.33.81,0,.64-.51,1.16-1.14,1.16Z"/>
    </g>
  </g>
</svg>