<?xml version="1.0" encoding="UTF-8"?>
<svg id="Capa_1" data-name="Capa 1" xmlns="http://www.w3.org/2000/svg" viewBox="0 0 103.17 96.32">
  <defs>
    <style>
      .cls-1 {
        fill: #18786c;
      }

      .cls-1, .cls-2, .cls-3, .cls-4 {
        stroke-width: 0px;
      }

      .cls-2 {
        fill: #58e1d7;
      }

      .cls-3 {
        fill: #f9f7f8;
      }

      .cls-4 {
        fill: #ed4a0a;
      }
    </style>
  </defs>
  <rect class="cls-2" y="0" width="103.17" height="96.32" rx="10.32" ry="10.32"/>
  <g>
    <path class="cls-1" d="M32.45,65.52h-9.19c-1.61,0-3.11-.6-4.22-1.69-1.11-1.09-1.67-2.52-1.58-4.03l.68-11.25c.04-.67.65-1.17,1.37-1.14.71.04,1.26.61,1.22,1.28l-.68,11.25c-.05.83.26,1.62.87,2.23.61.6,1.44.94,2.33.94h9.19c.72,0,1.3.54,1.3,1.21s-.58,1.21-1.3,1.21Z"/>
    <path class="cls-1" d="M55.92,65.52h-9.19c-.72,0-1.3-.54-1.3-1.21s.58-1.21,1.3-1.21h9.19c.89,0,1.72-.33,2.33-.94.61-.6.92-1.4.87-2.23l-.68-11.25c-.04-.67.51-1.24,1.22-1.28.71-.04,1.33.47,1.37,1.14l.68,11.25c.09,1.5-.47,2.93-1.58,4.03-1.11,1.09-2.6,1.69-4.22,1.69Z"/>
    <path class="cls-4" d="M46.11,67.14c-1.77.93-3.87,1.49-6.33,1.49s-4.73-.6-6.54-1.59l-3.22,1.85c-3.61,5.4,5.12,11.35,9.55,11.35s11.96-6.13,9.55-11.36l-3.01-1.73Z"/>
    <path class="cls-3" d="M64.31,88.11H14.87l.78-8.04c.19-1.94,1.35-3.68,3.12-4.71l11.25-6.48c1.36,3.7,5.12,6.35,9.55,6.35s8.19-2.66,9.55-6.37l11.28,6.49c1.78,1.02,2.93,2.76,3.12,4.71l.78,8.04Z"/>
    <path class="cls-1" d="M24.16,89.32h-9.29c-.36,0-.71-.14-.96-.39-.25-.25-.37-.59-.33-.93l.78-8.04c.22-2.31,1.62-4.41,3.73-5.63l16.24-9.34c.61-.35,1.41-.17,1.78.4.38.57.19,1.31-.42,1.66l-16.24,9.34c-1.42.82-2.36,2.23-2.51,3.78l-.65,6.72h7.88c.72,0,1.3.54,1.3,1.21s-.58,1.21-1.3,1.21Z"/>
    <path class="cls-1" d="M64.31,89.32H30.21c-.72,0-1.3-.54-1.3-1.21s.58-1.21,1.3-1.21h32.68l-.65-6.72c-.15-1.55-1.09-2.97-2.51-3.79l-16.24-9.34c-.61-.35-.8-1.1-.42-1.66.38-.57,1.17-.75,1.78-.4l16.24,9.34c2.11,1.22,3.51,3.32,3.73,5.63l.78,8.04c.03.34-.09.67-.33.93-.25.25-.59.39-.96.39Z"/>
    <rect class="cls-4" x="46.96" y="80.18" width="10.01" height="4.38"/>
    <path class="cls-1" d="M56.97,85.77h-10.01c-.72,0-1.3-.54-1.3-1.21v-4.38c0-.67.58-1.21,1.3-1.21h10.01c.72,0,1.3.54,1.3,1.21v4.38c0,.67-.58,1.21-1.3,1.21ZM48.25,83.35h7.42v-1.96h-7.42v1.96Z"/>
    <path class="cls-1" d="M54.97,58.68c-.22,0-.45-.05-.65-.17-.62-.34-.82-1.08-.46-1.66,1.39-2.22,2.17-4.76,2.25-7.33.02-.56.44-1.03,1.03-1.15,2.42-.48,4.17-2.51,4.15-4.83-.01-1.35-1.21-2.45-2.66-2.45h-1.21c-.72,0-1.3-.54-1.3-1.21v-5.93c0-.67.58-1.21,1.3-1.21s1.3.54,1.3,1.21v4.72c2.84.04,5.15,2.2,5.17,4.85.02,3.14-2.12,5.93-5.23,6.96-.23,2.67-1.1,5.28-2.56,7.6-.24.38-.67.6-1.12.6Z"/>
    <path class="cls-1" d="M39.59,70.85c-3.01,0-5.5-2.09-5.89-4.8-3.53-1.07-6.72-3.12-9.05-5.85-2.4-2.81-3.82-6.15-4.11-9.71-3.1-1.03-5.25-3.82-5.23-6.96.02-2.65,2.33-4.81,5.17-4.85v-4.72c0-.67.58-1.21,1.3-1.21s1.3.54,1.3,1.21v5.93c0,.67-.58,1.21-1.3,1.21h-1.21c-1.46,0-2.65,1.1-2.66,2.45-.02,2.32,1.73,4.35,4.15,4.83.58.12,1.01.59,1.03,1.15.21,6.74,5.23,12.68,12.2,14.43.57.14.96.62.96,1.17v.17c0,1.72,1.5,3.13,3.35,3.13.9,0,1.74-.33,2.37-.92.63-.59.98-1.38.98-2.21v-.17c0-.55.39-1.03.96-1.17,2.33-.59,4.54-1.67,6.39-3.15.54-.43,1.36-.37,1.83.14.46.51.4,1.27-.15,1.71-1.9,1.51-4.13,2.67-6.49,3.39-.17,1.2-.76,2.31-1.69,3.18-1.12,1.05-2.61,1.62-4.2,1.62Z"/>
    <path class="cls-1" d="M39.59,55.02c-1.78,0-3.56-.22-5.29-.66-.69-.18-1.1-.84-.91-1.49.19-.64.9-1.02,1.59-.85,3.01.77,6.19.77,9.2,0,.69-.18,1.4.2,1.59.85.19.64-.22,1.31-.91,1.49-1.73.44-3.51.66-5.29.66Z"/>
    <path class="cls-1" d="M57.68,47.36c-.08,0-.17,0-.26-.02-.7-.13-1.16-.77-1.02-1.42.26-1.23.71-2.13,1.37-2.74.51-.47,1.33-.47,1.83,0,.51.47.51,1.24,0,1.71-.19.18-.46.59-.66,1.5-.12.58-.66.97-1.27.97Z"/>
    <path class="cls-1" d="M21.5,47.36c-.61,0-1.15-.4-1.27-.97-.2-.92-.47-1.32-.66-1.5-.51-.47-.51-1.24,0-1.71.51-.47,1.33-.47,1.83,0,.66.61,1.11,1.51,1.37,2.74.14.66-.32,1.29-1.02,1.42-.09.02-.17.02-.26.02Z"/>
    <path class="cls-3" d="M57.41,13.81v20.15c-8.41-2.55-17.3-3.25-25.97-2.09-3.26.43-6.5,1.13-9.66,2.09V13.81c3.17-.96,6.4-1.66,9.66-2.09,8.67-1.16,17.56-.46,25.97,2.09Z"/>
    <path class="cls-1" d="M57.4,35.17c-.13,0-.27-.02-.4-.06-11.39-3.46-23.44-3.46-34.83,0-.39.12-.83.06-1.16-.17-.34-.23-.53-.59-.53-.98v-8.31c0-.67.58-1.21,1.3-1.21s1.3.54,1.3,1.21v6.67c5.37-1.46,10.92-2.2,16.52-2.2s11.15.74,16.52,2.2V14.7c-10.83-3.1-22.21-3.1-33.04,0v5.33c0,.67-.58,1.21-1.3,1.21s-1.3-.54-1.3-1.21v-6.22c0-.52.36-.99.9-1.15,5.89-1.79,12.02-2.69,18.22-2.69s12.32.91,18.22,2.69c.53.16.9.63.9,1.15v20.15c0,.39-.2.75-.53.98-.22.15-.49.23-.76.23Z"/>
    <path class="cls-4" d="M45.06,18.91h-3.03v-2.83c0-.73-.63-1.32-1.41-1.32h-2.06c-.78,0-1.41.59-1.41,1.32v2.83h-3.03c-.78,0-1.41.59-1.41,1.32v1.92c0,.73.63,1.32,1.41,1.32h3.03v2.83c0,.73.63,1.32,1.41,1.32h2.06c.78,0,1.41-.59,1.41-1.32v-2.83h3.03c.78,0,1.41-.59,1.41-1.32v-1.92c0-.73-.63-1.32-1.41-1.32Z"/>
    <path class="cls-1" d="M40.62,28.82h-2.06c-1.49,0-2.71-1.13-2.71-2.53v-1.62h-1.74c-1.49,0-2.71-1.13-2.71-2.53v-1.92c0-1.39,1.21-2.53,2.71-2.53h1.74v-1.62c0-1.39,1.21-2.53,2.71-2.53h2.06c1.49,0,2.71,1.13,2.71,2.53v1.62h1.74c1.49,0,2.71,1.13,2.71,2.53v1.92c0,1.39-1.21,2.53-2.71,2.53h-1.74v1.62c0,1.39-1.21,2.53-2.71,2.53ZM34.12,20.12c-.06,0-.11.05-.11.11v1.92c0,.06.05.11.11.11h3.03c.72,0,1.3.54,1.3,1.21v2.83c0,.06.05.11.11.11h2.06c.06,0,.11-.05.11-.11v-2.83c0-.67.58-1.21,1.3-1.21h3.03c.06,0,.11-.05.11-.11v-1.92c0-.06-.05-.11-.11-.11h-3.03c-.72,0-1.3-.54-1.3-1.21v-2.83c0-.06-.05-.11-.11-.11h-2.06c-.06,0-.11.05-.11.11v2.83c0,.67-.58,1.21-1.3,1.21h-3.03Z"/>
    <path class="cls-1" d="M39.57,76.45c-4.86,0-9.19-2.88-10.77-7.17-.23-.63.13-1.32.8-1.54.68-.22,1.41.12,1.65.75,1.22,3.31,4.57,5.54,8.32,5.54s7.11-2.23,8.33-5.55c.23-.63.97-.97,1.65-.75.68.22,1.04.9.81,1.54-1.58,4.3-5.91,7.19-10.78,7.19Z"/>
    <path class="cls-1" d="M39.57,89.32c-.72,0-1.3-.54-1.3-1.21v-12.87c0-.67.58-1.21,1.3-1.21s1.3.54,1.3,1.21v12.87c0,.67-.58,1.21-1.3,1.21Z"/>
    <path class="cls-1" d="M57.41,41.1c-.05,0-.11,0-.16,0-.08,0-2.05-.25-4.14-1.45-1.95-1.12-4.38-3.3-4.92-7.37-.09-.66.42-1.27,1.13-1.35.71-.08,1.36.39,1.45,1.05.79,5.89,6.57,6.68,6.82,6.72.71.09,1.21.7,1.11,1.36-.09.61-.64,1.05-1.28,1.05Z"/>
    <path class="cls-1" d="M21.77,41.1c-.64,0-1.2-.45-1.28-1.06-.09-.66.41-1.27,1.12-1.35.26-.03,6.03-.83,6.82-6.72.09-.66.74-1.13,1.45-1.05.71.08,1.21.69,1.13,1.35-.54,4.06-2.98,6.25-4.92,7.37-2.08,1.2-4.06,1.44-4.14,1.45-.06,0-.11,0-.16,0Z"/>
    <g>
      <path class="cls-1" d="M72.74,30.7c-.1,0-.2-.01-.3-.04-5.73-1.38-9.74-6.2-9.74-11.74,0-6.68,5.82-12.12,12.98-12.12s12.98,5.44,12.98,12.12c0,.62-.54,1.13-1.21,1.13s-1.21-.51-1.21-1.13c0-5.44-4.74-9.86-10.56-9.86s-10.56,4.42-10.56,9.86c0,4.5,3.26,8.43,7.92,9.55.65.16,1.04.77.87,1.37-.14.51-.63.85-1.17.85Z"/>
      <g>
        <path class="cls-1" d="M87.16,31.75s0,0-.01,0c-.67,0-1.21-.52-1.2-1.14,0-.45,0-.94.01-1.45h-3.49c-.43,0-.82-.21-1.04-.56-.22-.34-.22-.77-.02-1.12.75-1.26,3.22-5.43,3.77-6.05.53-.61,1.26-.85,1.95-.66.69.2,1.19.82,1.25,1.58.03.31.02,2.45,0,4.55.66,0,1.2.51,1.2,1.13s-.54,1.13-1.21,1.13h0c0,.6,0,1.12-.01,1.47,0,.62-.55,1.12-1.21,1.12ZM84.53,26.9h1.45c0-.86,0-1.69.01-2.4-.42.69-.93,1.52-1.46,2.4Z"/>
        <path class="cls-1" d="M77.83,31.75c-1.86,0-2-.04-2.16-.09-.4-.12-.69-.4-.81-.77-.2-.62.1-.99.7-1.72.48-.58,1.37-1.67,2.85-3.65.41-.55.69-1.05.8-1.47l.03-.19c-.03-.59-.56-1.06-1.2-1.06-.57,0-1.07.38-1.18.9-.13.61-.76,1.01-1.42.89-.66-.12-1.08-.71-.95-1.33.33-1.58,1.82-2.72,3.55-2.72,1.99,0,3.62,1.51,3.62,3.38,0,.05,0,.1,0,.14l-.05.34s-.01.07-.02.11c-.18.71-.58,1.48-1.19,2.3-.88,1.18-1.56,2.05-2.07,2.68.77,0,1.66,0,2.51-.02,0,0,.01,0,.02,0,.66,0,1.2.5,1.21,1.12,0,.62-.53,1.14-1.19,1.14-1.34.02-2.31.02-3.03.02Z"/>
      </g>
      <path class="cls-1" d="M75.68,20.14h-4.25c-.72,0-1.3-.54-1.3-1.21s.58-1.21,1.3-1.21h2.95v-5.41c0-.67.58-1.21,1.3-1.21s1.3.54,1.3,1.21v6.62c0,.67-.58,1.21-1.3,1.21Z"/>
    </g>
    <circle class="cls-1" cx="34.51" cy="42.09" r="1.8"/>
    <circle class="cls-1" cx="43.87" cy="42.09" r="1.8"/>
  </g>
</svg>