<?xml version="1.0" encoding="UTF-8"?>
<svg id="Capa_1" data-name="Capa 1" xmlns="http://www.w3.org/2000/svg" xmlns:xlink="http://www.w3.org/1999/xlink" viewBox="0 0 59.21 64.02">
  <defs>
    <style>
      .cls-1 {
        fill: url(#Degradado_sin_nombre_14);
      }

      .cls-1, .cls-2 {
        stroke-width: 0px;
      }

      .cls-2 {
        fill: url(#Degradado_sin_nombre_14-2);
      }
    </style>
    <linearGradient id="Degradado_sin_nombre_14" data-name="Degradado sin nombre 14" x1="3.96" y1="31.26" x2="58.52" y2="31.26" gradientUnits="userSpaceOnUse">
      <stop offset="0" stop-color="#fff"/>
      <stop offset="1" stop-color="#dcf2b6"/>
    </linearGradient>
    <linearGradient id="Degradado_sin_nombre_14-2" data-name="Degradado sin nombre 14" x1="16.64" y1="31.26" x2="45.83" y2="31.26" xlink:href="#Degradado_sin_nombre_14"/>
  </defs>
  <path class="cls-1" d="M31.24,58.54c-4.77,0-9.46-1.26-13.6-3.66l-10.63,3.66,2.18-11.25c-3.42-4.69-5.23-10.21-5.23-16.02C3.96,16.22,16.2,3.98,31.24,3.98s27.28,12.24,27.28,27.28-12.24,27.28-27.28,27.28ZM18.12,50.41l.82.51c3.71,2.32,7.96,3.55,12.29,3.55,12.8,0,23.22-10.42,23.22-23.22s-10.42-23.22-23.22-23.22S8.02,18.45,8.02,31.26c0,5.21,1.71,10.14,4.93,14.27l.57.73-1.19,6.15,5.8-2Z"/>
  <path class="cls-2" d="M17.47,20.78s1.6-2.8,2.9-2.96c1.3-.16,2.98-.16,3.44.69.45.85,2.48,5.81,2.48,5.81,0,0,.35.85-.19,1.68-.53.83-1.73,2.02-1.73,2.02,0,0-.67.85,0,1.76.67.91,1.7,2.57,3.84,4.71,2.13,2.14,6.23,3.66,6.23,3.66,0,0,.59.08.96-.29.37-.37,2.4-2.9,2.4-2.9,0,0,.65-.84,1.73-.35,1.08.49,5.75,2.82,5.75,2.82,0,0,.55.2.55,1.03s-.33,2.85-1.02,3.53c-.68.68-2.68,2.79-5.68,2.79s-10.15-2.44-13.96-6.25c-3.81-3.81-7.19-7.67-7.99-11.19-.8-3.52-.69-5.11.29-6.56Z"/>
</svg>