<?xml version="1.0" encoding="UTF-8"?>
<svg id="Capa_1" data-name="Capa 1" xmlns="http://www.w3.org/2000/svg" viewBox="0 0 229.11 58.95">
  <defs>
    <style>
      .cls-1 {
        fill: #fff;
        stroke-width: 0px;
      }
    </style>
  </defs>
  <path class="cls-1" d="M28.39,25.37c1.68,2.65,2.5,6.3,2.46,10.95l-.15,16.71c0,1.13-.4,2.08-1.17,2.83-.77.76-1.74,1.13-2.91,1.12-1.17,0-2.13-.4-2.88-1.17-.76-.77-1.13-1.72-1.12-2.85l.15-16.71c.02-2.39-.44-4.28-1.4-5.66-.96-1.38-2.64-2.08-5.07-2.1-2.51-.02-4.48.69-5.91,2.14-1.43,1.45-2.15,3.28-2.17,5.5l-.15,16.71c0,1.13-.4,2.08-1.17,2.83-.77.76-1.74,1.13-2.91,1.11-1.17,0-2.13-.4-2.88-1.16C.36,54.86-.01,53.91,0,52.78L.36,12.44c0-1.13.4-2.08,1.17-2.83.77-.75,1.74-1.13,2.91-1.12,1.16,0,2.13.4,2.89,1.17.76.77,1.13,1.72,1.12,2.85l-.13,14.42c1.23-1.55,2.78-2.88,4.65-3.97,1.87-1.09,3.95-1.63,6.24-1.61,4.45.04,7.51,1.38,9.19,4.03"/>
  <path class="cls-1" d="M62.2,47.66c1.86-2.05,2.8-4.64,2.83-7.78.03-3.13-.87-5.75-2.69-7.86-1.82-2.1-4.19-3.17-7.11-3.19-2.87-.02-5.24,1-7.1,3.07-1.86,2.07-2.8,4.68-2.83,7.81-.03,3.13.86,5.74,2.66,7.82,1.8,2.08,4.15,3.14,7.07,3.16,2.92.02,5.31-.99,7.17-3.04M71.79,22.9c.76.75,1.13,1.71,1.12,2.88l-.25,27.61c-.01,1.13-.4,2.08-1.17,2.83-.77.76-1.74,1.13-2.91,1.12-1.17,0-2.11-.39-2.85-1.13-.73-.75-1.12-1.69-1.15-2.82-1.13,1.25-2.66,2.32-4.57,3.19-1.92.87-3.93,1.3-6.04,1.28-3.1-.02-5.9-.82-8.4-2.39-2.5-1.56-4.47-3.72-5.9-6.48-1.44-2.75-2.14-5.87-2.1-9.35.03-3.48.78-6.6,2.24-9.35,1.46-2.75,3.44-4.89,5.95-6.41,2.5-1.52,5.26-2.27,8.27-2.25,2.15.02,4.17.42,6.05,1.2,1.88.78,3.46,1.76,4.76,2.94v-.07c0-1.13.4-2.07,1.17-2.83.77-.76,1.74-1.13,2.9-1.12,1.17,0,2.13.39,2.89,1.13"/>
  <path class="cls-1" d="M106.17,48c1.86-2.08,2.8-4.68,2.83-7.81.03-3.13-.86-5.74-2.66-7.82-1.8-2.08-4.16-3.14-7.08-3.16-2.92-.03-5.31.99-7.17,3.04-1.86,2.05-2.8,4.64-2.83,7.78-.03,3.13.87,5.75,2.69,7.86,1.82,2.11,4.19,3.17,7.11,3.2,2.87.02,5.24-1,7.1-3.07M108.74,24.42c2.5,1.57,4.47,3.72,5.9,6.48,1.43,2.75,2.14,5.87,2.1,9.35-.03,3.48-.78,6.6-2.24,9.35-1.46,2.75-3.44,4.89-5.95,6.41-2.51,1.52-5.26,2.28-8.27,2.25-2.15-.02-4.18-.46-6.08-1.32-1.9-.86-3.47-1.91-4.72-3.14v.39c-.01,1.13-.4,2.08-1.17,2.83-.77.76-1.74,1.13-2.91,1.12-1.17,0-2.13-.39-2.89-1.13-.76-.74-1.13-1.71-1.12-2.88l.37-40.99c.01-1.13.4-2.08,1.17-2.83.77-.75,1.74-1.13,2.9-1.12,1.17.01,2.13.4,2.89,1.17.76.77,1.13,1.72,1.12,2.85l-.12,13.64c1.09-1.3,2.6-2.43,4.54-3.39,1.94-.96,3.96-1.44,6.07-1.42,3.1.03,5.9.83,8.4,2.39"/>
  <path class="cls-1" d="M129.79,56.71c-.77.75-1.74,1.13-2.9,1.12-1.17,0-2.13-.4-2.89-1.17-.76-.77-1.13-1.72-1.12-2.85l.24-26.96c0-1.13.4-2.07,1.17-2.83.77-.75,1.74-1.13,2.91-1.12,1.17.01,2.13.4,2.88,1.17.76.77,1.13,1.72,1.12,2.85l-.24,26.96c0,1.13-.4,2.08-1.17,2.83"/>
  <path class="cls-1" d="M158.36,51.61c.51.59.76,1.37.76,2.32-.01,1.18-.68,2.16-2.01,2.95-1.33.79-2.83,1.18-4.49,1.17-2.78-.02-5.12-.62-7.02-1.79-1.9-1.17-2.83-3.63-2.79-7.37l.16-18.01-3.1-.03c-1.08,0-1.97-.36-2.68-1.07-.71-.7-1.06-1.58-1.05-2.62,0-1,.37-1.83,1.1-2.5.72-.67,1.63-1,2.7-.99l3.1.03.04-4.18c0-1.13.41-2.08,1.2-2.83.79-.75,1.77-1.13,2.94-1.12,1.12,0,2.06.4,2.82,1.17.75.77,1.13,1.72,1.12,2.85l-.04,4.18,4.78.04c1.08,0,1.97.37,2.68,1.07.71.7,1.06,1.58,1.05,2.62,0,1-.37,1.83-1.1,2.5-.72.67-1.62,1-2.7.99l-4.78-.04-.16,17.69c0,.91.23,1.58.72,2,.49.42,1.16.63,2.01.64.36,0,.85-.08,1.48-.25.54-.21,1.06-.32,1.55-.31.63,0,1.2.31,1.71.9"/>
  <path class="cls-1" d="M189.53,48.73c1.86-2.05,2.8-4.64,2.83-7.78.03-3.13-.87-5.75-2.69-7.86-1.82-2.11-4.19-3.17-7.11-3.19-2.87-.02-5.24,1-7.1,3.07-1.86,2.07-2.81,4.68-2.83,7.81-.03,3.14.86,5.74,2.66,7.83,1.8,2.08,4.16,3.13,7.08,3.16,2.92.02,5.3-.99,7.16-3.04M199.11,23.98c.76.75,1.13,1.71,1.12,2.88l-.25,27.61c0,1.13-.4,2.07-1.17,2.83-.77.76-1.74,1.13-2.91,1.12-1.17,0-2.12-.39-2.85-1.13-.73-.75-1.12-1.68-1.15-2.81-1.13,1.25-2.66,2.32-4.58,3.19-1.92.88-3.93,1.3-6.04,1.29-3.1-.03-5.9-.82-8.4-2.39-2.5-1.57-4.47-3.73-5.9-6.48-1.44-2.75-2.14-5.87-2.1-9.35.03-3.48.78-6.6,2.24-9.35,1.46-2.75,3.44-4.89,5.95-6.41,2.51-1.52,5.26-2.27,8.27-2.25,2.15.01,4.17.42,6.05,1.19,1.88.78,3.46,1.76,4.76,2.95v-.06c.01-1.13.4-2.08,1.17-2.83.77-.75,1.74-1.13,2.91-1.12,1.17,0,2.13.39,2.89,1.13"/>
  <path class="cls-1" d="M227.85,52.19c.51.59.76,1.37.76,2.32-.01,1.18-.68,2.16-2.02,2.95-1.33.79-2.83,1.18-4.49,1.17-2.78-.03-5.12-.62-7.02-1.79-1.9-1.17-2.83-3.63-2.79-7.37l.16-18.02-3.1-.02c-1.08-.01-1.97-.37-2.68-1.07-.71-.7-1.06-1.58-1.05-2.62,0-1,.38-1.84,1.1-2.5.72-.67,1.62-1,2.7-.99l3.1.03.04-4.18c0-1.13.41-2.07,1.2-2.83.79-.75,1.77-1.13,2.94-1.12,1.12.01,2.06.4,2.82,1.17.75.77,1.13,1.72,1.12,2.85l-.04,4.18,4.78.04c1.08,0,1.97.37,2.68,1.07.71.7,1.06,1.58,1.05,2.62,0,1-.37,1.83-1.1,2.5-.72.67-1.62,1-2.7.99l-4.78-.04-.16,17.69c0,.91.23,1.58.72,2,.49.42,1.16.63,2.01.64.36,0,.85-.08,1.49-.25.54-.21,1.05-.32,1.55-.31.63,0,1.2.3,1.71.89"/>
  <path class="cls-1" d="M54.12,17.83S53.63.31,72.87,0c0,0-1.03,17.61-18.75,17.83"/>
  <path class="cls-1" d="M131.63,16.8c-.02,2.25-1.92,4.06-4.24,4.04-2.32-.02-4.19-1.86-4.17-4.11.02-2.25,1.92-4.06,4.24-4.04,2.32.02,4.19,1.86,4.16,4.11"/>
</svg>